<?xml version="1.0" standalone="no"?>
<!DOCTYPE svg PUBLIC "-//W3C//DTD SVG 20010904//EN"
 "http://www.w3.org/TR/2001/REC-SVG-20010904/DTD/svg10.dtd">
<svg version="1.0" xmlns="http://www.w3.org/2000/svg"
 width="869.000000pt" height="1280.000000pt" viewBox="0 0 869.000000 1280.000000"
 preserveAspectRatio="xMidYMid meet">
<metadata>
Created by potrace 1.15, written by Peter Selinger 2001-2017
</metadata>
<g transform="translate(0.000000,1280.000000) scale(0.100000,-0.100000)"
fill="#000000" stroke="none">
<path d="M3990 12706 c-74 -8 -169 -17 -211 -21 l-77 -8 -7 -104 c-4 -57 -4
-136 0 -176 7 -65 12 -78 55 -137 76 -105 73 -86 65 -345 l-7 -233 -37 -5
c-20 -3 -82 -11 -139 -18 l-102 -12 4 -31 c20 -126 20 -123 -16 -129 -18 -2
-36 -3 -40 -1 -3 2 -11 35 -18 74 l-12 69 -31 -5 c-85 -15 -269 -53 -272 -56
-2 -2 5 -34 14 -73 20 -78 21 -75 -45 -89 -31 -7 -31 -6 -47 51 -9 32 -53 170
-97 307 -44 136 -80 250 -80 252 0 2 16 6 35 10 19 3 35 8 35 11 0 5 -142 456
-145 461 -2 3 -257 -77 -263 -83 -2 -2 8 -42 22 -88 14 -47 26 -87 26 -90 0
-3 -11 -8 -24 -11 -13 -3 -31 -8 -39 -12 -11 -4 -21 15 -42 81 -15 47 -31 87
-35 90 -4 3 -64 -13 -133 -35 l-126 -40 15 -48 c29 -93 38 -131 32 -137 -3 -3
-21 -8 -40 -11 l-34 -6 -24 79 c-13 43 -26 81 -30 85 -10 13 -292 -81 -288
-96 2 -7 34 -113 73 -235 64 -203 72 -222 90 -216 11 3 32 8 47 11 l26 6 72
-222 c39 -122 68 -226 63 -230 -4 -4 -44 -20 -88 -35 -44 -16 -82 -30 -84 -32
-2 -1 29 -84 70 -184 74 -181 74 -181 119 -204 84 -43 84 -43 154 -289 36
-127 66 -235 66 -242 0 -6 -20 -17 -45 -24 -25 -7 -45 -18 -45 -24 0 -6 16
-66 37 -133 l36 -122 83 -35 c45 -19 153 -57 240 -86 88 -28 166 -54 174 -57
8 -3 -43 -22 -115 -43 -298 -89 -600 -204 -1210 -460 -614 -258 -901 -362
-1260 -456 -77 -20 -141 -37 -142 -38 -1 -1 18 -71 43 -156 160 -554 221 -925
231 -1400 9 -437 -10 -609 -147 -1290 -118 -589 -155 -821 -191 -1210 -15
-156 -20 -462 -9 -555 4 -38 13 -122 20 -185 82 -794 440 -1560 1000 -2143
398 -414 785 -704 1249 -937 241 -120 366 -172 961 -395 511 -192 695 -275
892 -404 l107 -70 58 41 c202 142 425 244 989 453 729 269 1034 414 1399 663
522 355 995 856 1289 1366 375 649 541 1390 480 2141 -27 339 -54 513 -169
1090 -152 761 -183 1018 -172 1458 9 365 45 636 138 1027 25 105 122 459 136
496 3 7 -17 17 -49 24 -118 28 -403 112 -568 168 -212 72 -414 152 -785 307
-476 200 -848 340 -1190 449 -82 26 -154 51 -158 55 -4 4 18 13 50 21 87 19
224 65 343 115 l106 45 38 130 c22 72 37 132 35 133 -2 2 -25 11 -50 21 l-46
17 70 244 70 245 64 32 63 33 44 105 c46 109 106 258 106 264 0 1 -19 8 -42
15 -60 18 -138 52 -138 60 0 4 32 105 71 225 69 213 71 218 95 212 76 -19 62
-39 138 206 38 123 71 228 73 235 5 12 -276 108 -286 97 -3 -3 -18 -40 -32
-82 -26 -76 -27 -77 -59 -75 -18 0 -36 5 -40 10 -5 4 4 47 20 95 l28 88 -130
41 c-71 22 -131 39 -133 37 -1 -2 -15 -41 -30 -88 -15 -47 -29 -86 -30 -88 -5
-6 -75 27 -75 35 0 4 12 43 26 86 14 43 24 80 23 81 -7 6 -262 87 -264 84 -6
-7 -146 -460 -143 -462 2 -1 17 -6 33 -12 22 -7 29 -15 27 -29 -2 -11 -46
-150 -99 -308 -79 -242 -97 -287 -111 -283 -9 3 -29 8 -44 12 -16 3 -28 7 -28
8 0 0 7 26 15 56 27 99 34 92 -132 122 -82 14 -149 25 -151 23 -1 -1 -7 -31
-13 -65 -5 -35 -12 -66 -14 -70 -2 -3 -20 -4 -40 -2 l-35 4 6 67 c4 36 7 70 8
75 0 6 -60 19 -135 29 l-136 20 -7 135 c-3 74 -6 182 -6 240 l0 104 57 81 c56
79 58 85 64 162 4 44 4 123 2 176 l-6 95 -176 18 c-230 23 -624 29 -801 12z"/>
</g>
</svg>
