<?xml version="1.0" encoding="UTF-8"?>
<svg version="1.1" xmlns="http://www.w3.org/2000/svg" width="500" height="500">
<path d="M0 0 C165 0 330 0 500 0 C500 165 500 330 500 500 C335 500 170 500 0 500 C0 335 0 170 0 0 Z " fill="#FEFEFE" transform="translate(0,0)"/>
<path d="M0 0 C2.0625 1.8125 2.0625 1.8125 3.875 4.5 C5.98343458 7.27265118 5.98343458 7.27265118 10 6.9375 C10.6909375 6.88980469 11.381875 6.84210938 12.09375 6.79296875 C15.40099796 6.82577875 17.77893039 8.52893039 20.0625 10.8125 C20.59904826 13.67409075 20.79831817 15.05698781 20.0625 17.8125 C17.67909616 21.1033705 14.95483056 23.9653621 12.0625 26.8125 C12.60519531 26.36777344 13.14789063 25.92304688 13.70703125 25.46484375 C14.42246094 24.89894531 15.13789063 24.33304688 15.875 23.75 C16.58269531 23.18152344 17.29039062 22.61304688 18.01953125 22.02734375 C18.69371094 21.62644531 19.36789063 21.22554687 20.0625 20.8125 C21.5475 21.3075 21.5475 21.3075 23.0625 21.8125 C22.4025 23.1325 21.7425 24.4525 21.0625 25.8125 C21.59875 25.48636719 22.135 25.16023438 22.6875 24.82421875 C25.62593291 23.57248499 27.87709187 23.58120064 31.0625 23.625 C32.609375 23.63466797 32.609375 23.63466797 34.1875 23.64453125 C36.64318682 23.78800208 38.71757755 24.1078959 41.0625 24.8125 C40.5675 23.3275 40.5675 23.3275 40.0625 21.8125 C38.5775 21.3175 38.5775 21.3175 37.0625 20.8125 C38.0525 20.4825 39.0425 20.1525 40.0625 19.8125 C42.10546875 21.02734375 42.10546875 21.02734375 44.25 22.75 C44.96542969 23.31589844 45.68085938 23.88179687 46.41796875 24.46484375 C46.96066406 24.90957031 47.50335938 25.35429687 48.0625 25.8125 C48.0625 23.4793484 44.48730086 20.51531079 43.0625 18.8125 C41.62514754 15.93779507 41.68077351 13.99355412 42.0625 10.8125 C44 8.4375 44 8.4375 47.0625 6.8125 C49.22265625 6.78125 49.22265625 6.78125 51.5625 6.9375 C54.8776927 7.15998002 54.8776927 7.15998002 57.6484375 5.5625 C58.86023869 4.03489608 59.96606238 2.42490826 61.0625 0.8125 C65.74862865 -2.31158576 70.57853917 -1.75829434 76.0625 -1.1875 C79.06964199 -0.26265154 79.84129102 0.40619027 82.0625 2.8125 C82.6875 6.375 82.6875 6.375 82.0625 9.8125 C79.81873774 12.487755 78.46734065 12.77118973 75 13.125 C72.0625 12.8125 72.0625 12.8125 69.0625 10.8125 C68.8125 8.25 68.8125 8.25 69.0625 5.8125 C70.0625 4.8125 70.0625 4.8125 72.625 4.75 C73.8315625 4.7809375 73.8315625 4.7809375 75.0625 4.8125 C75.0625 4.1525 75.0625 3.4925 75.0625 2.8125 C70.20478542 1.61914069 70.20478542 1.61914069 65.625 3.125 C63.26455986 7.18495704 63.42955647 11.2199795 64.0625 15.8125 C65.00633866 18.05735567 65.00633866 18.05735567 66.0625 19.8125 C67.0525 18.4925 68.0425 17.1725 69.0625 15.8125 C70.7125 16.1425 72.3625 16.4725 74.0625 16.8125 C74.3925 18.1325 74.7225 19.4525 75.0625 20.8125 C73.0825 21.3075 73.0825 21.3075 71.0625 21.8125 C71.0625 20.8225 71.0625 19.8325 71.0625 18.8125 C70.4025 18.8125 69.7425 18.8125 69.0625 18.8125 C70.0525 21.7825 70.0525 21.7825 71.0625 24.8125 C71.76117188 24.94527344 72.45984375 25.07804687 73.1796875 25.21484375 C74.08976563 25.39144531 74.99984375 25.56804687 75.9375 25.75 C76.84242188 25.92402344 77.74734375 26.09804687 78.6796875 26.27734375 C81.0625 26.8125 81.0625 26.8125 83.0625 27.8125 C83.124375 27.090625 83.18625 26.36875 83.25 25.625 C84.3178751 21.92850926 86.17069816 20.28111132 89.0625 17.8125 C89.7225 17.8125 90.3825 17.8125 91.0625 17.8125 C91.3925 17.1525 91.7225 16.4925 92.0625 15.8125 C91.7325 18.4525 91.4025 21.0925 91.0625 23.8125 C91.59875 23.461875 92.135 23.11125 92.6875 22.75 C95.87939475 21.49004155 97.78674145 21.90643913 101.0625 22.8125 C103 24.0625 103 24.0625 104.0625 25.8125 C103.75 28.5 103.75 28.5 103.0625 30.8125 C99.94992431 30.8125 97.95484315 30.63888376 95.0625 29.8125 C94.63852967 34.05220328 94.62457758 36.79592177 97.3125 40.125 C99.74803205 42.83411222 99.74803205 42.83411222 102.19921875 43.7109375 C102.81410156 44.07445312 103.42898438 44.43796875 104.0625 44.8125 C104.56640625 46.80078125 104.56640625 46.80078125 104.625 49.125 C104.91964389 53.10909776 105.33680189 55.71084353 108.0625 58.8125 C111.13811246 60.17230881 111.13811246 60.17230881 114.0625 60.8125 C113.876875 59.843125 113.69125 58.87375 113.5 57.875 C113.2834375 56.3590625 113.2834375 56.3590625 113.0625 54.8125 C114.0625 53.8125 114.0625 53.8125 116.5 53.625 C119.0625 53.8125 119.0625 53.8125 121.0625 55.8125 C121.5 59.1875 121.5 59.1875 121.0625 62.8125 C118.5625 65.25 118.5625 65.25 116.0625 66.8125 C119.0325 68.1325 122.0025 69.4525 125.0625 70.8125 C120.81273848 72.93738076 115.73733914 73.28327293 111.0625 73.8125 C110.4025 73.4825 109.7425 73.1525 109.0625 72.8125 C108.753125 73.946875 108.44375 75.08125 108.125 76.25 C107.0625 79.8125 107.0625 79.8125 106.0625 80.8125 C106.02186168 82.47867115 106.019779 84.14638095 106.0625 85.8125 C106.7225 86.1425 107.3825 86.4725 108.0625 86.8125 C108.3925 85.4925 108.7225 84.1725 109.0625 82.8125 C110.3825 83.1425 111.7025 83.4725 113.0625 83.8125 C113.105221 85.47861905 113.10313832 87.14632885 113.0625 88.8125 C112.0625 89.8125 112.0625 89.8125 109.5 89.875 C108.695625 89.854375 107.89125 89.83375 107.0625 89.8125 C108.64086813 93.68667633 110.77068269 96.23629515 114.0625 98.8125 C117.07723362 99.51374023 118.88014249 99.2671225 122.0625 98.8125 C124.64959872 97.22723019 124.64959872 97.22723019 126.0625 94.8125 C126.0625 93.4925 126.0625 92.1725 126.0625 90.8125 C125.4025 90.4825 124.7425 90.1525 124.0625 89.8125 C123.7325 91.1325 123.4025 92.4525 123.0625 93.8125 C120.6875 94.4375 120.6875 94.4375 118.0625 94.8125 C116.0625 92.8125 116.0625 92.8125 115.6875 90.5 C116.20257327 86.80864153 117.29596835 85.29528482 120.0625 82.8125 C123.7944612 82.22324297 125.93937642 82.00525493 129.0625 84.25 C130.62153021 88.24501492 130.10485176 91.7073475 129.0625 95.8125 C126.62207419 100.60296548 123.87952362 103.40398819 119.0625 105.8125 C116.29911266 106.12175996 113.85730172 106.00524495 111.0625 105.8125 C111.18625 106.534375 111.31 107.25625 111.4375 108 C111.0625 110.8125 111.0625 110.8125 108.4375 113.6875 C105.0625 115.8125 105.0625 115.8125 101.9375 116 C97.31163458 114.08931646 95.87770299 110.70690409 93.96484375 106.26171875 C92.73701752 101.56833969 92.81102372 97.14102549 92.875 92.3125 C92.8759668 90.92611328 92.8759668 90.92611328 92.87695312 89.51171875 C92.90703613 84.83882599 93.10527489 80.40718052 94.0625 75.8125 C94.3925 75.8125 94.7225 75.8125 95.0625 75.8125 C95.10117187 77.47925781 95.10117187 77.47925781 95.140625 79.1796875 C95.43462202 93.46605741 95.43462202 93.46605741 102.625 105.3125 C103.429375 105.8075 104.23375 106.3025 105.0625 106.8125 C106.0525 107.4725 107.0425 108.1325 108.0625 108.8125 C108.3925 107.4925 108.7225 106.1725 109.0625 104.8125 C108.010625 104.07 106.95875 103.3275 105.875 102.5625 C100.16480902 97.59830623 97.535631 90.70071796 96.63256836 83.27929688 C96.50110185 79.56929691 96.52643197 75.89829627 96.625 72.1875 C96.63370117 70.31964844 96.63370117 70.31964844 96.64257812 68.4140625 C96.73593866 61.33359928 97.33752444 54.68646278 99.0625 47.8125 C97.81533203 47.67714844 97.81533203 47.67714844 96.54296875 47.5390625 C92.40419899 46.67507689 89.10937912 45.11803743 85.375 43.1875 C84.67310547 42.827771 83.97121094 42.46804199 83.24804688 42.09741211 C60.91632823 30.49482773 60.91632823 30.49482773 56.0625 18.5625 C55.22077062 15.40601484 54.76000046 13.03916173 55.0625 9.8125 C53.0825 10.4725 51.1025 11.1325 49.0625 11.8125 C49.7225 11.8125 50.3825 11.8125 51.0625 11.8125 C51.12566406 12.369375 51.18882812 12.92625 51.25390625 13.5 C52.50031811 21.26711388 56.12036085 25.92290547 62.41796875 30.5390625 C63.94328641 31.54930552 65.48509461 32.53537678 67.046875 33.48828125 C68.99091575 34.76547081 70.48616112 36.11145076 72.0625 37.8125 C71.37542969 37.5959375 70.68835938 37.379375 69.98046875 37.15625 C69.07941406 36.8778125 68.17835938 36.599375 67.25 36.3125 C66.35667969 36.0340625 65.46335937 35.755625 64.54296875 35.46875 C62.00676605 34.68461649 62.00676605 34.68461649 59.0625 34.8125 C60.29742187 35.23660156 61.53234375 35.66070312 62.8046875 36.09765625 C74.33093113 40.08055271 85.72964331 44.30946878 97.0625 48.8125 C96.11332905 56.48623687 95.10453437 64.1508514 94.0625 71.8125 C93.95566895 72.62686523 93.84883789 73.44123047 93.73876953 74.28027344 C90.85181822 95.75464036 81.68231603 115.00852903 68.0625 131.8125 C67.41023437 132.63105469 66.75796875 133.44960938 66.0859375 134.29296875 C59.61485987 141.95082703 51.80846619 148.04977183 43.99462891 154.26806641 C42.3509109 155.58196079 40.72607444 156.91942051 39.10546875 158.26171875 C38.32816406 158.89722656 37.55085938 159.53273438 36.75 160.1875 C36.11449219 160.71085938 35.47898437 161.23421875 34.82421875 161.7734375 C33.0625 162.8125 33.0625 162.8125 29.0625 162.8125 C26.88755461 161.20928822 24.9351684 159.61301654 22.9375 157.8125 C21.77057146 156.79047775 20.60259382 155.76965216 19.43359375 154.75 C18.8597998 154.24597656 18.28600586 153.74195313 17.69482422 153.22265625 C15.52038176 151.34416693 13.26771099 149.57668359 11 147.8125 C-17.91675555 124.66034888 -29.25363524 95.59626158 -33.5078125 59.3984375 C-33.93171622 55.86076824 -34.42819492 52.33874124 -34.9375 48.8125 C-30.33785111 47.00446313 -25.73367895 45.20861997 -21.12524414 43.4230957 C-19.56377897 42.81626049 -18.00351522 42.2063231 -16.44458008 41.59301758 C-7.05978348 37.90365524 2.10598208 34.65501507 12.0625 32.8125 C13.54254517 32.53369995 13.54254517 32.53369995 15.05249023 32.24926758 C18.07397283 31.81083524 20.93289716 31.68314947 23.984375 31.6796875 C25.09296875 31.67839844 26.2015625 31.67710937 27.34375 31.67578125 C28.4884375 31.67964844 29.633125 31.68351562 30.8125 31.6875 C32.50632813 31.68169922 32.50632813 31.68169922 34.234375 31.67578125 C40.90592459 31.68350295 47.44080271 31.98807427 54.0625 32.8125 C41.42591731 27.12400619 28.52962247 25.22152802 15.1875 29.875 C14.28257812 30.25785156 13.37765625 30.64070313 12.4453125 31.03515625 C10.0625 31.8125 10.0625 31.8125 8.14135742 31.26000977 C4.46948973 30.46957718 1.39692499 32.94986275 -1.75 34.6875 C-6.96244303 37.55556725 -10.97324293 39.01905881 -16.9375 39.8125 C-19.56816876 40.80573619 -22.05517942 42.04355117 -24.5625 43.3125 C-28.65481218 45.35865609 -32.40398952 47.01629555 -36.9375 47.8125 C-36.79747559 48.52067871 -36.65745117 49.22885742 -36.51318359 49.95849609 C-35.06507483 57.83154716 -34.57152524 65.44113965 -34.5625 73.4375 C-34.53800781 74.58734375 -34.51351562 75.7371875 -34.48828125 76.921875 C-34.45332814 87.15148418 -36.63168519 94.89547592 -43.5703125 102.53515625 C-44.9375 103.8125 -44.9375 103.8125 -46.9375 104.8125 C-46.6075 106.1325 -46.2775 107.4525 -45.9375 108.8125 C-40.71786777 105.92396566 -37.56254214 103.05657518 -35.5 97.375 C-33.47313782 90.2765179 -33.13821716 83.15874801 -32.9375 75.8125 C-32.6075 75.8125 -32.2775 75.8125 -31.9375 75.8125 C-29.81084963 86.44575185 -28.82249916 100.94931113 -33.9375 110.8125 C-36.31653623 113.94281083 -37.6230197 115.48387993 -41.4375 116.4375 C-45.11204513 115.51886372 -46.64117517 113.76491764 -48.9375 110.8125 C-49.25 108 -49.25 108 -48.9375 105.8125 C-50.13375 105.895 -51.33 105.9775 -52.5625 106.0625 C-57.08017329 106.04653649 -59.47176633 104.80563363 -62.9375 101.8125 C-66.88587762 97.22384493 -68.20967796 92.7890743 -67.9375 86.8125 C-66.875 84.25 -66.875 84.25 -64.9375 82.8125 C-61.31387615 82.19571296 -59.65162623 82.31068157 -56.625 84.4375 C-54.59072249 87.30055723 -54.08940413 89.31870505 -53.9375 92.8125 C-54.9275 93.8025 -54.9275 93.8025 -55.9375 94.8125 C-58.5625 94.4375 -58.5625 94.4375 -60.9375 93.8125 C-61.2675 92.4925 -61.5975 91.1725 -61.9375 89.8125 C-62.9275 90.3075 -62.9275 90.3075 -63.9375 90.8125 C-63.67093428 93.74693402 -63.67093428 93.74693402 -62.9375 96.8125 C-59.21170911 99.29636059 -57.35038598 99.1929212 -52.9375 98.8125 C-47.86907732 96.80870499 -46.31029272 93.47020423 -43.9375 88.8125 C-46.4125 89.8025 -46.4125 89.8025 -48.9375 90.8125 C-50.5 89.5625 -50.5 89.5625 -51.9375 87.8125 C-51.625 85.625 -51.625 85.625 -50.9375 83.8125 C-48.9575 83.3175 -48.9575 83.3175 -46.9375 82.8125 C-46.2775 84.1325 -45.6175 85.4525 -44.9375 86.8125 C-44.25948966 83.91176819 -44.25948966 83.91176819 -43.9375 80.8125 C-44.5975 80.1525 -45.2575 79.4925 -45.9375 78.8125 C-46.0625 75.1875 -46.0625 75.1875 -45.9375 71.8125 C-46.453125 72.163125 -46.96875 72.51375 -47.5 72.875 C-50.9239021 74.19188542 -53.36709585 73.48964561 -56.9375 72.8125 C-58.6390625 72.5340625 -58.6390625 72.5340625 -60.375 72.25 C-61.220625 72.105625 -62.06625 71.96125 -62.9375 71.8125 C-60.58472731 69.08823689 -58.31253669 67.9983237 -54.9375 66.8125 C-55.5975 66.296875 -56.2575 65.78125 -56.9375 65.25 C-58.9375 62.8125 -58.9375 62.8125 -59.3125 59.1875 C-58.9375 55.8125 -58.9375 55.8125 -56.9375 53.8125 C-54.3125 53.6875 -54.3125 53.6875 -51.9375 53.8125 C-51.9375 55.7925 -51.9375 57.7725 -51.9375 59.8125 C-49.60678121 60.23120553 -49.60678121 60.23120553 -46.9375 59.8125 C-44.26566273 57.58596894 -43.05253688 55.89140645 -42.6796875 52.39453125 C-42.64101562 51.52183594 -42.60234375 50.64914063 -42.5625 49.75 C-42.40625 47.11328125 -42.40625 47.11328125 -41.9375 44.8125 C-39.0625 42.4375 -39.0625 42.4375 -35.9375 40.8125 C-33.13002572 38.0986082 -32.95026432 37.06778643 -32.75 33.0625 C-32.811875 31.99 -32.87375 30.9175 -32.9375 29.8125 C-33.80375 30.06 -33.80375 30.06 -34.6875 30.3125 C-36.9375 30.8125 -36.9375 30.8125 -40.9375 30.8125 C-41.4325 28.3375 -41.4325 28.3375 -41.9375 25.8125 C-39.8125 23.75 -39.8125 23.75 -36.9375 21.8125 C-33.75 22.0625 -33.75 22.0625 -30.9375 22.8125 C-30.2775 22.8125 -29.6175 22.8125 -28.9375 22.8125 C-29.4325 19.3475 -29.4325 19.3475 -29.9375 15.8125 C-29.4425 16.8025 -29.4425 16.8025 -28.9375 17.8125 C-28.009375 18.2765625 -28.009375 18.2765625 -27.0625 18.75 C-24.78333672 19.88958164 -23.50020572 20.80330693 -21.9375 22.8125 C-21.25 25.5 -21.25 25.5 -20.9375 27.8125 C-20.421875 27.4825 -19.90625 27.1525 -19.375 26.8125 C-16.15723488 25.49239123 -13.3804472 25.68007895 -9.9375 25.8125 C-8.9475 23.5025 -7.9575 21.1925 -6.9375 18.8125 C-7.5975 18.8125 -8.2575 18.8125 -8.9375 18.8125 C-8.9375 19.8025 -8.9375 20.7925 -8.9375 21.8125 C-10.2575 21.4825 -11.5775 21.1525 -12.9375 20.8125 C-12.9375 19.4925 -12.9375 18.1725 -12.9375 16.8125 C-10.9575 16.4825 -8.9775 16.1525 -6.9375 15.8125 C-5.9475 17.1325 -4.9575 18.4525 -3.9375 19.8125 C-1.59807982 15.2798734 -1.19178783 10.80877151 -1.9375 5.8125 C-3.37764926 3.12111457 -3.37764926 3.12111457 -5.9375 1.8125 C-9.105332 1.47801741 -9.105332 1.47801741 -11.9375 1.8125 C-12.2675 2.8025 -12.5975 3.7925 -12.9375 4.8125 C-10.9575 5.1425 -8.9775 5.4725 -6.9375 5.8125 C-6.9375 7.4625 -6.9375 9.1125 -6.9375 10.8125 C-9.7596083 12.73153365 -11.06651932 12.80360212 -14.5625 12.5625 C-17.9375 11.8125 -17.9375 11.8125 -19.9375 9.8125 C-20.4375 6.4375 -20.4375 6.4375 -19.9375 2.8125 C-14.7408888 -2.6650091 -6.78607002 -2.7433049 0 0 Z " fill="#FDFDFD" transform="translate(219.9375,166.1875)"/>
<path d="M0 0 C2.0625 1.8125 2.0625 1.8125 3.875 4.5 C5.98343458 7.27265118 5.98343458 7.27265118 10 6.9375 C10.6909375 6.88980469 11.381875 6.84210938 12.09375 6.79296875 C15.40099796 6.82577875 17.77893039 8.52893039 20.0625 10.8125 C20.59904826 13.67409075 20.79831817 15.05698781 20.0625 17.8125 C17.67909616 21.1033705 14.95483056 23.9653621 12.0625 26.8125 C12.60519531 26.36777344 13.14789063 25.92304688 13.70703125 25.46484375 C14.42246094 24.89894531 15.13789063 24.33304688 15.875 23.75 C16.58269531 23.18152344 17.29039062 22.61304688 18.01953125 22.02734375 C18.69371094 21.62644531 19.36789063 21.22554687 20.0625 20.8125 C21.5475 21.3075 21.5475 21.3075 23.0625 21.8125 C22.4025 23.1325 21.7425 24.4525 21.0625 25.8125 C21.59875 25.48636719 22.135 25.16023438 22.6875 24.82421875 C25.62593291 23.57248499 27.87709187 23.58120064 31.0625 23.625 C32.609375 23.63466797 32.609375 23.63466797 34.1875 23.64453125 C36.64318682 23.78800208 38.71757755 24.1078959 41.0625 24.8125 C40.5675 23.3275 40.5675 23.3275 40.0625 21.8125 C38.5775 21.3175 38.5775 21.3175 37.0625 20.8125 C38.0525 20.4825 39.0425 20.1525 40.0625 19.8125 C42.10546875 21.02734375 42.10546875 21.02734375 44.25 22.75 C44.96542969 23.31589844 45.68085938 23.88179687 46.41796875 24.46484375 C46.96066406 24.90957031 47.50335938 25.35429687 48.0625 25.8125 C48.0625 23.4793484 44.48730086 20.51531079 43.0625 18.8125 C41.62514754 15.93779507 41.68077351 13.99355412 42.0625 10.8125 C44 8.4375 44 8.4375 47.0625 6.8125 C49.22265625 6.78125 49.22265625 6.78125 51.5625 6.9375 C54.8776927 7.15998002 54.8776927 7.15998002 57.6484375 5.5625 C58.86023869 4.03489608 59.96606238 2.42490826 61.0625 0.8125 C65.74862865 -2.31158576 70.57853917 -1.75829434 76.0625 -1.1875 C79.06964199 -0.26265154 79.84129102 0.40619027 82.0625 2.8125 C82.6875 6.375 82.6875 6.375 82.0625 9.8125 C79.81873774 12.487755 78.46734065 12.77118973 75 13.125 C72.0625 12.8125 72.0625 12.8125 69.0625 10.8125 C68.8125 8.25 68.8125 8.25 69.0625 5.8125 C70.0625 4.8125 70.0625 4.8125 72.625 4.75 C73.8315625 4.7809375 73.8315625 4.7809375 75.0625 4.8125 C75.0625 4.1525 75.0625 3.4925 75.0625 2.8125 C70.20478542 1.61914069 70.20478542 1.61914069 65.625 3.125 C63.26455986 7.18495704 63.42955647 11.2199795 64.0625 15.8125 C65.00633866 18.05735567 65.00633866 18.05735567 66.0625 19.8125 C67.0525 18.4925 68.0425 17.1725 69.0625 15.8125 C70.7125 16.1425 72.3625 16.4725 74.0625 16.8125 C74.3925 18.1325 74.7225 19.4525 75.0625 20.8125 C73.0825 21.3075 73.0825 21.3075 71.0625 21.8125 C71.0625 20.8225 71.0625 19.8325 71.0625 18.8125 C70.4025 18.8125 69.7425 18.8125 69.0625 18.8125 C70.0525 21.7825 70.0525 21.7825 71.0625 24.8125 C71.76117188 24.94527344 72.45984375 25.07804687 73.1796875 25.21484375 C74.08976563 25.39144531 74.99984375 25.56804687 75.9375 25.75 C76.84242188 25.92402344 77.74734375 26.09804687 78.6796875 26.27734375 C81.0625 26.8125 81.0625 26.8125 83.0625 27.8125 C83.124375 27.090625 83.18625 26.36875 83.25 25.625 C84.3178751 21.92850926 86.17069816 20.28111132 89.0625 17.8125 C89.7225 17.8125 90.3825 17.8125 91.0625 17.8125 C91.3925 17.1525 91.7225 16.4925 92.0625 15.8125 C91.7325 18.4525 91.4025 21.0925 91.0625 23.8125 C91.59875 23.461875 92.135 23.11125 92.6875 22.75 C95.87939475 21.49004155 97.78674145 21.90643913 101.0625 22.8125 C103 24.0625 103 24.0625 104.0625 25.8125 C103.75 28.5 103.75 28.5 103.0625 30.8125 C99.94992431 30.8125 97.95484315 30.63888376 95.0625 29.8125 C94.63852967 34.05220328 94.62457758 36.79592177 97.3125 40.125 C99.74803205 42.83411222 99.74803205 42.83411222 102.19921875 43.7109375 C102.81410156 44.07445312 103.42898438 44.43796875 104.0625 44.8125 C104.56640625 46.80078125 104.56640625 46.80078125 104.625 49.125 C104.91964389 53.10909776 105.33680189 55.71084353 108.0625 58.8125 C111.13811246 60.17230881 111.13811246 60.17230881 114.0625 60.8125 C113.876875 59.843125 113.69125 58.87375 113.5 57.875 C113.2834375 56.3590625 113.2834375 56.3590625 113.0625 54.8125 C114.0625 53.8125 114.0625 53.8125 116.5 53.625 C119.0625 53.8125 119.0625 53.8125 121.0625 55.8125 C121.5 59.1875 121.5 59.1875 121.0625 62.8125 C118.5625 65.25 118.5625 65.25 116.0625 66.8125 C119.0325 68.1325 122.0025 69.4525 125.0625 70.8125 C120.81273848 72.93738076 115.73733914 73.28327293 111.0625 73.8125 C110.4025 73.4825 109.7425 73.1525 109.0625 72.8125 C108.753125 73.946875 108.44375 75.08125 108.125 76.25 C107.0625 79.8125 107.0625 79.8125 106.0625 80.8125 C106.02186168 82.47867115 106.019779 84.14638095 106.0625 85.8125 C106.7225 86.1425 107.3825 86.4725 108.0625 86.8125 C108.3925 85.4925 108.7225 84.1725 109.0625 82.8125 C110.3825 83.1425 111.7025 83.4725 113.0625 83.8125 C113.105221 85.47861905 113.10313832 87.14632885 113.0625 88.8125 C112.0625 89.8125 112.0625 89.8125 109.5 89.875 C108.695625 89.854375 107.89125 89.83375 107.0625 89.8125 C108.64086813 93.68667633 110.77068269 96.23629515 114.0625 98.8125 C117.07723362 99.51374023 118.88014249 99.2671225 122.0625 98.8125 C124.64959872 97.22723019 124.64959872 97.22723019 126.0625 94.8125 C126.0625 93.4925 126.0625 92.1725 126.0625 90.8125 C125.4025 90.4825 124.7425 90.1525 124.0625 89.8125 C123.7325 91.1325 123.4025 92.4525 123.0625 93.8125 C120.6875 94.4375 120.6875 94.4375 118.0625 94.8125 C116.0625 92.8125 116.0625 92.8125 115.6875 90.5 C116.20257327 86.80864153 117.29596835 85.29528482 120.0625 82.8125 C123.7944612 82.22324297 125.93937642 82.00525493 129.0625 84.25 C130.62153021 88.24501492 130.10485176 91.7073475 129.0625 95.8125 C126.62207419 100.60296548 123.87952362 103.40398819 119.0625 105.8125 C116.29911266 106.12175996 113.85730172 106.00524495 111.0625 105.8125 C111.18625 106.534375 111.31 107.25625 111.4375 108 C111.0625 110.8125 111.0625 110.8125 108.4375 113.6875 C105.0625 115.8125 105.0625 115.8125 101.9375 116 C97.31163458 114.08931646 95.87770299 110.70690409 93.96484375 106.26171875 C92.73701752 101.56833969 92.81102372 97.14102549 92.875 92.3125 C92.8759668 90.92611328 92.8759668 90.92611328 92.87695312 89.51171875 C92.90703613 84.83882599 93.10527489 80.40718052 94.0625 75.8125 C94.3925 75.8125 94.7225 75.8125 95.0625 75.8125 C95.10117187 77.47925781 95.10117187 77.47925781 95.140625 79.1796875 C95.43462202 93.46605741 95.43462202 93.46605741 102.625 105.3125 C103.429375 105.8075 104.23375 106.3025 105.0625 106.8125 C106.0525 107.4725 107.0425 108.1325 108.0625 108.8125 C108.3925 107.4925 108.7225 106.1725 109.0625 104.8125 C108.010625 104.07 106.95875 103.3275 105.875 102.5625 C100.16480902 97.59830623 97.535631 90.70071796 96.63256836 83.27929688 C96.50110185 79.56929691 96.52643197 75.89829627 96.625 72.1875 C96.63370117 70.31964844 96.63370117 70.31964844 96.64257812 68.4140625 C96.73593866 61.33359928 97.33752444 54.68646278 99.0625 47.8125 C97.81533203 47.67714844 97.81533203 47.67714844 96.54296875 47.5390625 C92.40419899 46.67507689 89.10937912 45.11803743 85.375 43.1875 C84.67310547 42.827771 83.97121094 42.46804199 83.24804688 42.09741211 C60.91632823 30.49482773 60.91632823 30.49482773 56.0625 18.5625 C55.22077062 15.40601484 54.76000046 13.03916173 55.0625 9.8125 C53.0825 10.4725 51.1025 11.1325 49.0625 11.8125 C49.7225 11.8125 50.3825 11.8125 51.0625 11.8125 C51.12566406 12.369375 51.18882812 12.92625 51.25390625 13.5 C52.50031811 21.26711388 56.12036085 25.92290547 62.41796875 30.5390625 C63.94328641 31.54930552 65.48509461 32.53537678 67.046875 33.48828125 C68.99091575 34.76547081 70.48616112 36.11145076 72.0625 37.8125 C71.37542969 37.5959375 70.68835938 37.379375 69.98046875 37.15625 C69.07941406 36.8778125 68.17835938 36.599375 67.25 36.3125 C66.35667969 36.0340625 65.46335937 35.755625 64.54296875 35.46875 C62.00676605 34.68461649 62.00676605 34.68461649 59.0625 34.8125 C60.29742187 35.23660156 61.53234375 35.66070312 62.8046875 36.09765625 C74.33093113 40.08055271 85.72964331 44.30946878 97.0625 48.8125 C96.11332905 56.48623687 95.10453437 64.1508514 94.0625 71.8125 C93.95566895 72.62686523 93.84883789 73.44123047 93.73876953 74.28027344 C90.85181822 95.75464036 81.68231603 115.00852903 68.0625 131.8125 C67.41023437 132.63105469 66.75796875 133.44960938 66.0859375 134.29296875 C59.61485987 141.95082703 51.80846619 148.04977183 43.99462891 154.26806641 C42.3509109 155.58196079 40.72607444 156.91942051 39.10546875 158.26171875 C38.32816406 158.89722656 37.55085938 159.53273438 36.75 160.1875 C36.11449219 160.71085938 35.47898437 161.23421875 34.82421875 161.7734375 C33.0625 162.8125 33.0625 162.8125 29.0625 162.8125 C26.88755461 161.20928822 24.9351684 159.61301654 22.9375 157.8125 C21.77057146 156.79047775 20.60259382 155.76965216 19.43359375 154.75 C18.8597998 154.24597656 18.28600586 153.74195313 17.69482422 153.22265625 C15.52038176 151.34416693 13.26771099 149.57668359 11 147.8125 C-17.91675555 124.66034888 -29.25363524 95.59626158 -33.5078125 59.3984375 C-33.93171622 55.86076824 -34.42819492 52.33874124 -34.9375 48.8125 C-30.33785111 47.00446313 -25.73367895 45.20861997 -21.12524414 43.4230957 C-19.56377897 42.81626049 -18.00351522 42.2063231 -16.44458008 41.59301758 C-7.05978348 37.90365524 2.10598208 34.65501507 12.0625 32.8125 C13.54254517 32.53369995 13.54254517 32.53369995 15.05249023 32.24926758 C18.07397283 31.81083524 20.93289716 31.68314947 23.984375 31.6796875 C25.09296875 31.67839844 26.2015625 31.67710937 27.34375 31.67578125 C28.4884375 31.67964844 29.633125 31.68351562 30.8125 31.6875 C32.50632813 31.68169922 32.50632813 31.68169922 34.234375 31.67578125 C40.90592459 31.68350295 47.44080271 31.98807427 54.0625 32.8125 C41.42591731 27.12400619 28.52962247 25.22152802 15.1875 29.875 C14.28257812 30.25785156 13.37765625 30.64070313 12.4453125 31.03515625 C10.0625 31.8125 10.0625 31.8125 8.14135742 31.26000977 C4.46948973 30.46957718 1.39692499 32.94986275 -1.75 34.6875 C-6.96244303 37.55556725 -10.97324293 39.01905881 -16.9375 39.8125 C-19.56816876 40.80573619 -22.05517942 42.04355117 -24.5625 43.3125 C-28.65481218 45.35865609 -32.40398952 47.01629555 -36.9375 47.8125 C-36.79747559 48.52067871 -36.65745117 49.22885742 -36.51318359 49.95849609 C-35.06507483 57.83154716 -34.57152524 65.44113965 -34.5625 73.4375 C-34.53800781 74.58734375 -34.51351562 75.7371875 -34.48828125 76.921875 C-34.45332814 87.15148418 -36.63168519 94.89547592 -43.5703125 102.53515625 C-44.9375 103.8125 -44.9375 103.8125 -46.9375 104.8125 C-46.6075 106.1325 -46.2775 107.4525 -45.9375 108.8125 C-40.71786777 105.92396566 -37.56254214 103.05657518 -35.5 97.375 C-33.47313782 90.2765179 -33.13821716 83.15874801 -32.9375 75.8125 C-32.6075 75.8125 -32.2775 75.8125 -31.9375 75.8125 C-29.81084963 86.44575185 -28.82249916 100.94931113 -33.9375 110.8125 C-36.31653623 113.94281083 -37.6230197 115.48387993 -41.4375 116.4375 C-45.11204513 115.51886372 -46.64117517 113.76491764 -48.9375 110.8125 C-49.25 108 -49.25 108 -48.9375 105.8125 C-50.13375 105.895 -51.33 105.9775 -52.5625 106.0625 C-57.08017329 106.04653649 -59.47176633 104.80563363 -62.9375 101.8125 C-66.88587762 97.22384493 -68.20967796 92.7890743 -67.9375 86.8125 C-66.875 84.25 -66.875 84.25 -64.9375 82.8125 C-61.31387615 82.19571296 -59.65162623 82.31068157 -56.625 84.4375 C-54.59072249 87.30055723 -54.08940413 89.31870505 -53.9375 92.8125 C-54.9275 93.8025 -54.9275 93.8025 -55.9375 94.8125 C-58.5625 94.4375 -58.5625 94.4375 -60.9375 93.8125 C-61.2675 92.4925 -61.5975 91.1725 -61.9375 89.8125 C-62.9275 90.3075 -62.9275 90.3075 -63.9375 90.8125 C-63.67093428 93.74693402 -63.67093428 93.74693402 -62.9375 96.8125 C-59.21170911 99.29636059 -57.35038598 99.1929212 -52.9375 98.8125 C-47.86907732 96.80870499 -46.31029272 93.47020423 -43.9375 88.8125 C-46.4125 89.8025 -46.4125 89.8025 -48.9375 90.8125 C-50.5 89.5625 -50.5 89.5625 -51.9375 87.8125 C-51.625 85.625 -51.625 85.625 -50.9375 83.8125 C-48.9575 83.3175 -48.9575 83.3175 -46.9375 82.8125 C-46.2775 84.1325 -45.6175 85.4525 -44.9375 86.8125 C-44.25948966 83.91176819 -44.25948966 83.91176819 -43.9375 80.8125 C-44.5975 80.1525 -45.2575 79.4925 -45.9375 78.8125 C-46.0625 75.1875 -46.0625 75.1875 -45.9375 71.8125 C-46.453125 72.163125 -46.96875 72.51375 -47.5 72.875 C-50.9239021 74.19188542 -53.36709585 73.48964561 -56.9375 72.8125 C-58.6390625 72.5340625 -58.6390625 72.5340625 -60.375 72.25 C-61.220625 72.105625 -62.06625 71.96125 -62.9375 71.8125 C-60.58472731 69.08823689 -58.31253669 67.9983237 -54.9375 66.8125 C-55.5975 66.296875 -56.2575 65.78125 -56.9375 65.25 C-58.9375 62.8125 -58.9375 62.8125 -59.3125 59.1875 C-58.9375 55.8125 -58.9375 55.8125 -56.9375 53.8125 C-54.3125 53.6875 -54.3125 53.6875 -51.9375 53.8125 C-51.9375 55.7925 -51.9375 57.7725 -51.9375 59.8125 C-49.60678121 60.23120553 -49.60678121 60.23120553 -46.9375 59.8125 C-44.26566273 57.58596894 -43.05253688 55.89140645 -42.6796875 52.39453125 C-42.64101562 51.52183594 -42.60234375 50.64914063 -42.5625 49.75 C-42.40625 47.11328125 -42.40625 47.11328125 -41.9375 44.8125 C-39.0625 42.4375 -39.0625 42.4375 -35.9375 40.8125 C-33.13002572 38.0986082 -32.95026432 37.06778643 -32.75 33.0625 C-32.811875 31.99 -32.87375 30.9175 -32.9375 29.8125 C-33.80375 30.06 -33.80375 30.06 -34.6875 30.3125 C-36.9375 30.8125 -36.9375 30.8125 -40.9375 30.8125 C-41.4325 28.3375 -41.4325 28.3375 -41.9375 25.8125 C-39.8125 23.75 -39.8125 23.75 -36.9375 21.8125 C-33.75 22.0625 -33.75 22.0625 -30.9375 22.8125 C-30.2775 22.8125 -29.6175 22.8125 -28.9375 22.8125 C-29.4325 19.3475 -29.4325 19.3475 -29.9375 15.8125 C-29.4425 16.8025 -29.4425 16.8025 -28.9375 17.8125 C-28.009375 18.2765625 -28.009375 18.2765625 -27.0625 18.75 C-24.78333672 19.88958164 -23.50020572 20.80330693 -21.9375 22.8125 C-21.25 25.5 -21.25 25.5 -20.9375 27.8125 C-20.421875 27.4825 -19.90625 27.1525 -19.375 26.8125 C-16.15723488 25.49239123 -13.3804472 25.68007895 -9.9375 25.8125 C-8.9475 23.5025 -7.9575 21.1925 -6.9375 18.8125 C-7.5975 18.8125 -8.2575 18.8125 -8.9375 18.8125 C-8.9375 19.8025 -8.9375 20.7925 -8.9375 21.8125 C-10.2575 21.4825 -11.5775 21.1525 -12.9375 20.8125 C-12.9375 19.4925 -12.9375 18.1725 -12.9375 16.8125 C-10.9575 16.4825 -8.9775 16.1525 -6.9375 15.8125 C-5.9475 17.1325 -4.9575 18.4525 -3.9375 19.8125 C-1.59807982 15.2798734 -1.19178783 10.80877151 -1.9375 5.8125 C-3.37764926 3.12111457 -3.37764926 3.12111457 -5.9375 1.8125 C-9.105332 1.47801741 -9.105332 1.47801741 -11.9375 1.8125 C-12.2675 2.8025 -12.5975 3.7925 -12.9375 4.8125 C-10.9575 5.1425 -8.9775 5.4725 -6.9375 5.8125 C-6.9375 7.4625 -6.9375 9.1125 -6.9375 10.8125 C-9.7596083 12.73153365 -11.06651932 12.80360212 -14.5625 12.5625 C-17.9375 11.8125 -17.9375 11.8125 -19.9375 9.8125 C-20.4375 6.4375 -20.4375 6.4375 -19.9375 2.8125 C-14.7408888 -2.6650091 -6.78607002 -2.7433049 0 0 Z M-29.9375 51.8125 C-25.59804481 89.24902178 -16.88704036 120.74439436 13.73046875 145.14160156 C16.5034573 147.32104594 19.30132405 149.46193239 22.1171875 151.5859375 C24.80418723 153.61722377 27.44280343 155.69547583 30.0625 157.8125 C34.07711242 156.09195182 37.30770895 153.39545175 40.6875 150.6875 C41.30633057 150.19467529 41.92516113 149.70185059 42.56274414 149.1940918 C43.81274731 148.19839237 45.06186422 147.20157924 46.31005859 146.20361328 C47.84694166 144.98361332 49.40069351 143.7849263 50.95703125 142.58984375 C56.33660981 138.4332723 60.83794597 134.13506587 65.0625 128.8125 C65.77148438 127.95140625 66.48046875 127.0903125 67.2109375 126.203125 C84.3648016 104.54124883 89.4421816 78.72471129 92.0625 51.8125 C88.29857949 50.29079188 84.53056042 48.77973435 80.75878906 47.27758789 C79.48163762 46.76733609 78.20555368 46.25440249 76.93066406 45.73852539 C38.95053295 30.38199206 6.83918634 36.53435137 -29.9375 51.8125 Z " fill="#0B0B0B" transform="translate(219.9375,166.1875)"/>
<path d="M0 0 C2.3959247 3.93691592 2.93925693 8.23491497 3.8125 12.6875 C6.62353965 26.07766371 12.56418449 32.91714313 22.5 42 C26.42252318 45.58578685 30.26675727 49.21463521 34 53 C34.763125 53.763125 35.52625 54.52625 36.3125 55.3125 C36.869375 55.869375 37.42625 56.42625 38 57 C34.18834147 55.57062805 30.64635353 53.8171042 27.0625 51.90234375 C22.97034154 50.11202442 18.86416187 49.82388031 14.4375 49.75 C13.50808594 49.72421875 12.57867187 49.6984375 11.62109375 49.671875 C8.55833288 50.05529067 7.20011779 50.86717994 5 53 C5 53.66 5 54.32 5 55 C7.76276177 54.47731534 10.3260876 53.89130413 13 53 C28.48204151 50.80021353 41.49505781 60.00023907 53.32910156 68.73535156 C55.58914302 70.4459031 57.80416056 72.2079931 60 74 C63.10942394 72.58154369 65.55118211 70.85321834 68.1875 68.6875 C72.57086877 65.23220605 77.0391519 62.53537015 82 60 C83.0209375 59.47019531 84.041875 58.94039063 85.09375 58.39453125 C96.29580502 52.6711512 104.73303015 51.68139946 117 55 C116.20882096 53.00016466 116.20882096 53.00016466 115 51 C107.74576906 48.58192302 101.02735607 49.16889197 94.25317383 52.5546875 C92.43141882 53.53222613 90.63462657 54.54724329 88.8359375 55.56640625 C87.90007812 56.03949219 86.96421875 56.51257813 86 57 C85.34 56.67 84.68 56.34 84 56 C84.680625 55.37996094 85.36125 54.75992188 86.0625 54.12109375 C87.57609554 52.73832761 89.08919078 51.35497565 90.59399414 49.96264648 C93.75044888 47.04314229 96.93926222 44.17330364 100.18359375 41.3515625 C108.11263029 34.35962694 114.40966749 28.59681482 117 18 C117.27674561 16.87682373 117.27674561 16.87682373 117.55908203 15.73095703 C118.82614226 10.5093514 119.95192817 5.2696349 121 0 C121.33 0 121.66 0 122 0 C122.71413279 8.02124152 123.14525497 15.94641862 123 24 C121 21 121 21 120 19 C119.86464844 19.556875 119.72929687 20.11375 119.58984375 20.6875 C117.7604011 27.17270986 114.72022041 31.25391536 110 36 C111.32 36 112.64 36 114 36 C114.99 35.01 114.99 35.01 116 34 C115.75390625 35.859375 115.75390625 35.859375 115 38 C113.15234375 39.265625 113.15234375 39.265625 110.9375 40.25 C110.20402344 40.58515625 109.47054687 40.9203125 108.71484375 41.265625 C108.14894531 41.50796875 107.58304687 41.7503125 107 42 C108.12148438 41.94779297 108.12148438 41.94779297 109.265625 41.89453125 C110.25046875 41.86746094 111.2353125 41.84039062 112.25 41.8125 C113.22453125 41.77769531 114.1990625 41.74289062 115.203125 41.70703125 C118.43981617 42.04607013 119.75434723 42.66494185 122 45 C122.4761505 49.28535449 122.69868227 51.7296686 120.625 55.5 C119 57 119 57 117 57 C117.495 57.598125 117.99 58.19625 118.5 58.8125 C120.73196749 63.55543093 120.89861432 67.85273716 120 73 C117.69753619 77.6198303 114.86870953 81.07583935 110 83 C107.24299192 82.7982677 105.49117382 82.29470429 103.125 80.875 C102 79 102 79 102.125 75.5 C103.34736842 70.61052632 103.34736842 70.61052632 106 69 C108.6875 68.8125 108.6875 68.8125 111 69 C111.625 71.3125 111.625 71.3125 112 74 C111.34 74.99 110.68 75.98 110 77 C111.94074861 76.72382467 111.94074861 76.72382467 114 76 C116.35618542 73.11400612 116.35618542 73.11400612 115.8125 69.5 C114.9018572 65.5223583 114.9018572 65.5223583 112 63 C108.52674819 61.8422494 105.63932552 61.93133348 102 62 C102.20625 62.763125 102.4125 63.52625 102.625 64.3125 C103 67 103 67 101 70 C99.02 69.505 99.02 69.505 97 69 C97 67.68 97 66.36 97 65 C97.99 64.67 98.98 64.34 100 64 C97.69 63.67 95.38 63.34 93 63 C92.9071875 64.11375 92.9071875 64.11375 92.8125 65.25 C91.75814862 68.8185739 90.00090227 69.92245228 87 72 C87.639375 72.61875 88.27875 73.2375 88.9375 73.875 C91.76956333 76.79288343 91.99067486 77.4591417 92.0625 81.625 C92.041875 82.73875 92.02125 83.8525 92 85 C88.00003714 83.66667905 87.16217663 81.5042173 85 78 C85 79.62620148 85.10890479 81.25069891 85.1875 82.875 C85.16923211 85.42337095 85.14451282 86.72797587 83.9375 89 C80.97912322 90.52690415 78.26283401 90.18468872 75 90 C74.67 88.02 74.34 86.04 74 84 C75.32 83.67 76.64 83.34 78 83 C77.67 81.68 77.34 80.36 77 79 C70.76158314 77.84935867 67.73127406 78.07068215 62 81 C59.03613422 80.31603097 56.70294568 79.35147284 54 78 C48.67032792 77.65907959 48.67032792 77.65907959 44 80 C44 80.99 44 81.98 44 83 C45.32 83.33 46.64 83.66 48 84 C47.67 85.98 47.34 87.96 47 90 C43.75 90.3125 43.75 90.3125 40 90 C37.14528344 87.29553168 35.57894956 84.90790955 35 81 C34.401875 81.804375 33.80375 82.60875 33.1875 83.4375 C31 86 31 86 28 87 C28 86.34 28 85.68 28 85 C28.66 85 29.32 85 30 85 C29.896875 83.783125 29.79375 82.56625 29.6875 81.3125 C29.65408479 77.54994773 29.90669702 77.11196358 32.5 74 C33.325 73.34 34.15 72.68 35 72 C34.195625 71.443125 33.39125 70.88625 32.5625 70.3125 C29.75771784 67.78135513 29.30618405 66.67420866 29 63 C25.535 63.495 25.535 63.495 22 64 C23.485 64.495 23.485 64.495 25 65 C24.67 66.65 24.34 68.3 24 70 C22.68 69.67 21.36 69.34 20 69 C19.61866701 67.0085944 19.28674418 65.00720923 19 63 C19.33 62.67 19.66 62.34 20 62 C13.8504217 61.45560696 13.8504217 61.45560696 8.5 64.125 C5.77418465 66.76706404 5.77418465 66.76706404 5.4375 70.0625 C6.05163848 73.26966762 6.65807696 74.74171707 9 77 C11.09415804 77.79623822 11.09415804 77.79623822 13 78 C12.484375 77.443125 11.96875 76.88625 11.4375 76.3125 C10 74 10 74 10.3125 71.25 C10.539375 70.5075 10.76625 69.765 11 69 C13.25 68.6875 13.25 68.6875 16 69 C18.56412763 71.42552614 19.82087126 73.08196519 20.5 76.5625 C19.81655182 79.89430988 18.79883479 81.08500778 16 83 C11.5012976 83.09779788 8.63785429 81.53746178 5.32421875 78.51953125 C2.35861229 75.11651971 1.20293625 71.39156289 0.5625 67 C1.15521277 62.93568386 2.79162801 60.45058123 5 57 C4.01 56.67 3.02 56.34 2 56 C0.03944291 53.05916436 -0.31214545 52.31872048 -0.375 49 C-0.40335938 48.319375 -0.43171875 47.63875 -0.4609375 46.9375 C0 45 0 45 1.6640625 43.26171875 C4.56145643 41.69673842 6.47741933 41.69562212 9.75 41.8125 C10.73484375 41.83957031 11.7196875 41.86664063 12.734375 41.89453125 C13.48203125 41.92933594 14.2296875 41.96414063 15 42 C12.36 40.68 9.72 39.36 7 38 C7 37.01 7 36.02 7 35 C8.32 35 9.64 35 11 35 C10.60167969 34.59910156 10.20335937 34.19820313 9.79296875 33.78515625 C5.54538267 29.22752739 3.55293177 25.00739397 2 19 C1.01 21.475 1.01 21.475 0 24 C-0.66 23.67 -1.32 23.34 -2 23 C-1.93941406 22.42894531 -1.87882813 21.85789062 -1.81640625 21.26953125 C-1.08466041 14.18848306 -0.52298617 7.09925906 0 0 Z " fill="#0C0C0C" transform="translate(190,257)"/>
<path d="M0 0 C0.78375 0.04125 1.5675 0.0825 2.375 0.125 C2.66890625 1.37603516 2.66890625 1.37603516 2.96875 2.65234375 C5.79525105 13.28827228 9.8049318 19.57554623 19.32861328 25.28735352 C22.30175539 26.98404062 25.3287524 28.56442234 28.375 30.125 C29.48359375 30.70636719 30.5921875 31.28773438 31.734375 31.88671875 C36.55049871 34.36067285 41.20133384 36.49681682 46.375 38.125 C46.30716309 38.68010254 46.23932617 39.23520508 46.16943359 39.80712891 C45.32239536 47.3694252 45.08660619 54.89440228 45 62.5 C44.96261719 63.7375 44.92523438 64.975 44.88671875 66.25 C44.80108085 75.28955641 45.93237109 84.23215541 52.25170898 91.19189453 C54.32894379 93.05511696 54.32894379 93.05511696 57.375 95.125 C56.5 99 56.5 99 55.375 100.125 C53.70882885 100.16563832 52.04111905 100.167721 50.375 100.125 C51.035 99.465 51.695 98.805 52.375 98.125 C51.4675 97.50625 50.56 96.8875 49.625 96.25 C43.82063753 91.36500464 42.3096287 84.27769687 41.625 77 C41.53666631 75.37526414 41.45248718 73.75028926 41.375 72.125 C41.3458456 75.52081516 41.32814932 78.91659786 41.3125 82.3125 C41.30412109 83.27220703 41.29574219 84.23191406 41.28710938 85.22070312 C41.28388672 86.15205078 41.28066406 87.08339844 41.27734375 88.04296875 C41.27210693 88.89656982 41.26687012 89.7501709 41.26147461 90.62963867 C41.31183382 93.16073613 41.31183382 93.16073613 41.90844727 95.7355957 C42.49526318 98.74091615 41.99743817 101.15112872 41.375 104.125 C41.045 104.125 40.715 104.125 40.375 104.125 C39.715 97.855 39.055 91.585 38.375 85.125 C37.818125 87.72375 37.26125 90.3225 36.6875 93 C33.16327731 108.26486915 26.04861226 116.34279068 14.296875 126.42578125 C11.17914942 129.18230691 8.28080992 132.14850822 5.375 135.125 C4.715 135.785 4.055 136.445 3.375 137.125 C4.24640625 136.6196875 5.1178125 136.114375 6.015625 135.59375 C13.76980632 131.29183269 20.26812461 128.53200167 29.375 130.125 C30.71021522 130.78788954 32.04399967 131.4536876 33.375 132.125 C34.035 131.795 34.695 131.465 35.375 131.125 C35.375 132.775 35.375 134.425 35.375 136.125 C32.66240825 137.16830452 31.53542521 137.18229472 28.75 136.1875 C19.20588594 133.1828715 11.15666825 135.90495114 2.375 140.125 C-0.0530691 141.56127083 -2.34894064 143.07916729 -4.640625 144.72265625 C-6.46330473 146.0107311 -8.28333472 147.07640192 -10.25 148.125 C-14.11594627 150.41593112 -17.31531732 153.10705226 -20.625 156.125 C-24.48154717 154.78507091 -27.1036676 153.09345718 -30.1875 150.4375 C-40.92929289 141.65600462 -52.9453683 134.57754281 -67.1171875 134.7890625 C-69.87026907 135.15785536 -72.06544787 136.07536854 -74.625 137.125 C-76.9375 136.75 -76.9375 136.75 -78.625 136.125 C-78.625 134.475 -78.625 132.825 -78.625 131.125 C-77.635 131.125 -76.645 131.125 -75.625 131.125 C-74.965 130.795 -74.305 130.465 -73.625 130.125 C-62.87069683 129.16906194 -54.97496477 132.19501857 -45.625 137.125 C-46.12128906 136.7846875 -46.61757812 136.444375 -47.12890625 136.09375 C-51.6689292 132.85456854 -55.16085678 129.47212271 -58.70703125 125.1875 C-60.85310834 122.87970223 -63.15761752 121.12566773 -65.6875 119.25 C-76.66496484 110.63793729 -79.10011966 98.249378 -81.625 85.125 C-81.955 88.095 -82.285 91.065 -82.625 94.125 C-83.285 94.125 -83.945 94.125 -84.625 94.125 C-84.625 86.865 -84.625 79.605 -84.625 72.125 C-84.8725 74.084375 -85.12 76.04375 -85.375 78.0625 C-86.50887684 85.34151355 -87.86622001 91.55431865 -93.375 96.6875 C-94.1175 97.161875 -94.86 97.63625 -95.625 98.125 C-94.965 98.785 -94.305 99.445 -93.625 100.125 C-96 100.25 -96 100.25 -98.625 100.125 C-99.285 99.465 -99.945 98.805 -100.625 98.125 C-100.625 96.3125 -100.625 96.3125 -99.625 94.125 C-98.14744446 92.97579013 -96.66945654 91.82712272 -95.1875 90.68359375 C-91.33075837 86.83649398 -88.76023184 79.87224759 -88.49560547 74.49633789 C-88.49447754 73.45727295 -88.49334961 72.41820801 -88.4921875 71.34765625 C-88.49089844 70.19330078 -88.48960937 69.03894531 -88.48828125 67.84960938 C-88.49214844 66.64111328 -88.49601563 65.43261719 -88.5 64.1875 C-88.49613281 63.01380859 -88.49226562 61.84011719 -88.48828125 60.63085938 C-88.49662968 53.07970541 -88.8691277 45.63809514 -89.625 38.125 C-86.75209627 36.82863485 -83.87631838 35.53876901 -81 34.25 C-80.19175781 33.88519531 -79.38351563 33.52039063 -78.55078125 33.14453125 C-68.30745473 28.564182 -68.30745473 28.564182 -63.19140625 27.7265625 C-59.03039037 26.75122544 -55.4261859 24.52905312 -51.70898438 22.4765625 C-47.08309129 20.03609134 -47.08309129 20.03609134 -44.51171875 20.53515625 C-43.88910156 20.72980469 -43.26648438 20.92445313 -42.625 21.125 C-40.15512561 20.35651316 -40.15512561 20.35651316 -37.5 19.1875 C-22.80097192 14.09731409 -9.50876716 17.22000536 4.375 23.125 C4.375 23.455 4.375 23.785 4.375 24.125 C3.73820312 24.0528125 3.10140625 23.980625 2.4453125 23.90625 C-27.60271998 21.03694186 -52.23368083 25.79152892 -79.96411133 36.94042969 C-85.42615422 39.125 -85.42615422 39.125 -87.625 39.125 C-87.44324219 39.90359375 -87.26148438 40.6821875 -87.07421875 41.484375 C-85.44899768 48.71869237 -84.16906928 55.9125323 -83.125 63.25 C-78.82470862 92.67780661 -66.43592592 118.115756 -42.734375 136.6796875 C-40.28666136 138.60464823 -37.89581474 140.56427725 -35.515625 142.5703125 C-34.80043701 143.16787354 -34.08524902 143.76543457 -33.34838867 144.38110352 C-31.92893953 145.56769307 -30.51483994 146.76071718 -29.10668945 147.96069336 C-28.12768677 148.77098999 -28.12768677 148.77098999 -27.12890625 149.59765625 C-26.54955322 150.08500244 -25.9702002 150.57234863 -25.37329102 151.07446289 C-23.39350424 152.46837262 -23.39350424 152.46837262 -19.625 152.125 C-16.97375542 150.29783969 -16.97375542 150.29783969 -14.25 147.8125 C-13.18421932 146.88579921 -12.11642922 145.96140549 -11.046875 145.0390625 C-10.48935547 144.55727539 -9.93183594 144.07548828 -9.35742188 143.57910156 C-7.06185143 141.65232344 -4.68029429 139.85339341 -2.28955078 138.04711914 C14.18150233 125.53316351 25.66702753 109.22105847 33.375 90.125 C33.70846436 89.30999023 34.04192871 88.49498047 34.38549805 87.65527344 C37.04868953 80.80055722 38.42224697 74.14103762 39.4375 66.875 C39.76466022 64.68325418 40.09408331 62.49184493 40.42578125 60.30078125 C40.58385254 59.24842285 40.74192383 58.19606445 40.90478516 57.11181641 C41.85515891 51.07501861 43.09275136 45.09911298 44.375 39.125 C43.58351563 39.03863281 42.79203125 38.95226562 41.9765625 38.86328125 C37.29975013 37.90458544 33.14420244 36.14696885 28.75 34.3125 C22.02809913 31.55105054 15.35988634 28.99879815 8.39453125 26.9140625 C6.375 26.125 6.375 26.125 5.375 24.125 C9.10408331 24.62699198 12.73647686 25.16707023 16.375 26.125 C15.80652344 25.77308594 15.23804688 25.42117187 14.65234375 25.05859375 C8.16033378 20.90760908 1.48625201 16.43715911 -1.625 9.125 C-2.00790462 7.13389599 -2.35104615 5.13399487 -2.625 3.125 C-3.285 4.445 -3.945 5.765 -4.625 7.125 C-4.75 4.75 -4.75 4.75 -4.625 2.125 C-2.625 0.125 -2.625 0.125 0 0 Z " fill="#DDDDDD" transform="translate(272.625,175.875)"/>
<path d="M0 0 C-0.94917095 7.67373687 -1.95796563 15.3383514 -3 23 C-3.10683105 23.81436523 -3.21366211 24.62873047 -3.32373047 25.46777344 C-6.21068178 46.94214036 -15.38018397 66.19602903 -29 83 C-29.97839844 84.22783203 -29.97839844 84.22783203 -30.9765625 85.48046875 C-37.44764013 93.13832703 -45.25403381 99.23727183 -53.06787109 105.45556641 C-54.7115891 106.76946079 -56.33642556 108.10692051 -57.95703125 109.44921875 C-58.73433594 110.08472656 -59.51164062 110.72023438 -60.3125 111.375 C-60.94800781 111.89835938 -61.58351563 112.42171875 -62.23828125 112.9609375 C-64 114 -64 114 -68 114 C-70.17494539 112.39678822 -72.1273316 110.80051654 -74.125 109 C-75.29192854 107.97797775 -76.45990618 106.95715216 -77.62890625 105.9375 C-78.2027002 105.43347656 -78.77649414 104.92945313 -79.36767578 104.41015625 C-81.54211824 102.53166693 -83.79478901 100.76418359 -86.0625 99 C-114.97925555 75.84784888 -126.31613524 46.78376158 -130.5703125 10.5859375 C-130.99421622 7.04826824 -131.49069492 3.52624124 -132 0 C-127.40035111 -1.80803687 -122.79617895 -3.60388003 -118.18774414 -5.3894043 C-116.62627897 -5.99623951 -115.06601522 -6.6061769 -113.50708008 -7.21948242 C-104.12228348 -10.90884476 -94.95651792 -14.15748493 -85 -16 C-84.00967773 -16.1844165 -83.01935547 -16.36883301 -81.99902344 -16.55883789 C-52.5305757 -20.89370317 -26.78112719 -10.64129329 0 0 Z M-127 3 C-122.66054481 40.43652178 -113.94954036 71.93189436 -83.33203125 96.32910156 C-80.5590427 98.50854594 -77.76117595 100.64943239 -74.9453125 102.7734375 C-72.25831277 104.80472377 -69.61969657 106.88297583 -67 109 C-62.98538758 107.27945182 -59.75479105 104.58295175 -56.375 101.875 C-55.75616943 101.38217529 -55.13733887 100.88935059 -54.49975586 100.3815918 C-53.24975269 99.38589237 -52.00063578 98.38907924 -50.75244141 97.39111328 C-49.21555834 96.17111332 -47.66180649 94.9724263 -46.10546875 93.77734375 C-40.72589019 89.6207723 -36.22455403 85.32256587 -32 80 C-31.29101562 79.13890625 -30.58203125 78.2778125 -29.8515625 77.390625 C-12.6976984 55.72874883 -7.6203184 29.91221129 -5 3 C-8.76392051 1.47829188 -12.53193958 -0.03276565 -16.30371094 -1.53491211 C-17.58086238 -2.04516391 -18.85694632 -2.55809751 -20.13183594 -3.07397461 C-58.11196705 -18.43050794 -90.22331366 -12.27814863 -127 3 Z " fill="#0D0D0D" transform="translate(317,215)"/>
<path d="M0 0 C5.49471751 -0.32321868 9.46054055 -0.5464527 14 3 C15.66450194 4.66450194 15.56174176 6.63528589 15.56640625 8.87890625 C14.34121353 13.46704175 10.30049764 16.75107263 7 20 C7.54269531 19.55527344 8.08539063 19.11054688 8.64453125 18.65234375 C9.35996094 18.08644531 10.07539063 17.52054688 10.8125 16.9375 C11.52019531 16.36902344 12.22789062 15.80054688 12.95703125 15.21484375 C13.63121094 14.81394531 14.30539063 14.41304687 15 14 C15.99 14.33 16.98 14.66 18 15 C17.34 16.32 16.68 17.64 16 19 C16.53625 18.67386719 17.0725 18.34773438 17.625 18.01171875 C20.56343291 16.75998499 22.81459187 16.76870064 26 16.8125 C27.546875 16.82216797 27.546875 16.82216797 29.125 16.83203125 C31.58068682 16.97550208 33.65507755 17.2953959 36 18 C35.505 16.515 35.505 16.515 35 15 C34.01 14.67 33.02 14.34 32 14 C32.99 13.67 33.98 13.34 35 13 C36.76171875 14.07421875 36.76171875 14.07421875 38.6875 15.6875 C42.03714747 18.35367161 45.3068818 20.24218514 49.16796875 22.0546875 C51.72717848 23.37521789 53.84029356 25.11025687 56 27 C53.625 27.625 53.625 27.625 51 28 C50.01 27.01 50.01 27.01 49 26 C37.76713635 20.4838616 25.53156096 18.80357686 13.328125 21.9453125 C11.32432188 22.64419993 9.33727569 23.39576798 7.3828125 24.22265625 C5 25 5 25 3.08764648 24.4453125 C0.46273612 23.88539711 -0.45205531 24.39229627 -2.78515625 25.65234375 C-3.48060547 26.01650391 -4.17605469 26.38066406 -4.89257812 26.75585938 C-5.96668945 27.34077148 -5.96668945 27.34077148 -7.0625 27.9375 C-8.48803484 28.70195423 -9.91632362 29.46130095 -11.34765625 30.21484375 C-11.97679932 30.55636475 -12.60594238 30.89788574 -13.25415039 31.24975586 C-15 32 -15 32 -18 32 C-16.75945261 28.27835784 -15.57353001 27.8646579 -12.3125 25.8125 C-5.52241595 21.16920933 -1.31387597 16.77628365 0.3125 8.5625 C0.43238281 7.71816406 0.55226562 6.87382812 0.67578125 6.00390625 C1 4 1 4 2 3 C1.34 2.67 0.68 2.34 0 2 C0 1.34 0 0.68 0 0 Z " fill="#171717" transform="translate(225,173)"/>
<path d="M0 0 C0 0.33 0 0.66 0 1 C-0.63679688 0.9278125 -1.27359375 0.855625 -1.9296875 0.78125 C-31.97771998 -2.08805814 -56.60868083 2.66652892 -84.33911133 13.81542969 C-89.80115422 16 -89.80115422 16 -92 16 C-91.81824219 16.77859375 -91.63648438 17.5571875 -91.44921875 18.359375 C-90.57976481 22.22955973 -89.76968322 26.10896576 -89 30 C-88.85062988 30.75490723 -88.70125977 31.50981445 -88.54736328 32.28759766 C-86.04156569 45.42058896 -85.89117385 57.69408621 -87 71 C-87.66 71 -88.32 71 -89 71 C-89 63.74 -89 56.48 -89 49 C-89.37125 51.9390625 -89.37125 51.9390625 -89.75 54.9375 C-90.88387684 62.21651355 -92.24122001 68.42931865 -97.75 73.5625 C-98.4925 74.036875 -99.235 74.51125 -100 75 C-99.34 75.66 -98.68 76.32 -98 77 C-100.375 77.125 -100.375 77.125 -103 77 C-103.66 76.34 -104.32 75.68 -105 75 C-105 73.1875 -105 73.1875 -104 71 C-102.52244446 69.85079013 -101.04445654 68.70212272 -99.5625 67.55859375 C-95.70575837 63.71149398 -93.13523184 56.74724759 -92.87060547 51.37133789 C-92.86947754 50.33227295 -92.86834961 49.29320801 -92.8671875 48.22265625 C-92.86589844 47.06830078 -92.86460937 45.91394531 -92.86328125 44.72460938 C-92.86714844 43.51611328 -92.87101563 42.30761719 -92.875 41.0625 C-92.87113281 39.88880859 -92.86726562 38.71511719 -92.86328125 37.50585938 C-92.87162968 29.95470541 -93.2441277 22.51309514 -94 15 C-91.12709627 13.70363485 -88.25131838 12.41376901 -85.375 11.125 C-84.56675781 10.76019531 -83.75851563 10.39539063 -82.92578125 10.01953125 C-72.68245473 5.439182 -72.68245473 5.439182 -67.56640625 4.6015625 C-63.40539037 3.62622544 -59.8011859 1.40405312 -56.08398438 -0.6484375 C-51.45809129 -3.08890866 -51.45809129 -3.08890866 -48.88671875 -2.58984375 C-48.26410156 -2.39519531 -47.64148438 -2.20054687 -47 -2 C-44.53012561 -2.76848684 -44.53012561 -2.76848684 -41.875 -3.9375 C-27.17597192 -9.02768591 -13.88376716 -5.90499464 0 0 Z " fill="#C1C1C1" transform="translate(277,199)"/>
<path d="M0 0 C0.78375 0.04125 1.5675 0.0825 2.375 0.125 C2.5709375 0.95902344 2.766875 1.79304687 2.96875 2.65234375 C5.79525105 13.28827228 9.8049318 19.57554623 19.32861328 25.28735352 C22.30175539 26.98404062 25.3287524 28.56442234 28.375 30.125 C29.48359375 30.70636719 30.5921875 31.28773438 31.734375 31.88671875 C36.55049871 34.36067285 41.20133384 36.49681682 46.375 38.125 C46.30716309 38.68010254 46.23932617 39.23520508 46.16943359 39.80712891 C45.32239536 47.3694252 45.08660619 54.89440228 45 62.5 C44.96261719 63.7375 44.92523438 64.975 44.88671875 66.25 C44.80108085 75.28955641 45.93237109 84.23215541 52.25170898 91.19189453 C54.32894379 93.05511696 54.32894379 93.05511696 57.375 95.125 C56.5 99 56.5 99 55.375 100.125 C53.70882885 100.16563832 52.04111905 100.167721 50.375 100.125 C51.035 99.465 51.695 98.805 52.375 98.125 C51.4675 97.50625 50.56 96.8875 49.625 96.25 C43.82063753 91.36500464 42.3096287 84.27769687 41.625 77 C41.53666631 75.37526414 41.45248718 73.75028926 41.375 72.125 C41.3458456 75.52081516 41.32814932 78.91659786 41.3125 82.3125 C41.29993164 83.75206055 41.29993164 83.75206055 41.28710938 85.22070312 C41.28388672 86.15205078 41.28066406 87.08339844 41.27734375 88.04296875 C41.27210693 88.89656982 41.26687012 89.7501709 41.26147461 90.62963867 C41.31183382 93.16073613 41.31183382 93.16073613 41.90844727 95.7355957 C42.49526318 98.74091615 41.99743817 101.15112872 41.375 104.125 C41.045 104.125 40.715 104.125 40.375 104.125 C39.715 97.855 39.055 91.585 38.375 85.125 C38.045 86.775 37.715 88.425 37.375 90.125 C36.385 89.795 35.395 89.465 34.375 89.125 C34.56835938 88.54451904 34.76171875 87.96403809 34.9609375 87.3659668 C37.10860842 80.61794756 38.34922168 73.93461995 39.375 66.9375 C40.80090264 57.60500861 42.39372513 48.35593976 44.375 39.125 C43.58351563 39.03863281 42.79203125 38.95226562 41.9765625 38.86328125 C37.29975013 37.90458544 33.14420244 36.14696885 28.75 34.3125 C22.02809913 31.55105054 15.35988634 28.99879815 8.39453125 26.9140625 C6.375 26.125 6.375 26.125 5.375 24.125 C9.10408331 24.62699198 12.73647686 25.16707023 16.375 26.125 C15.80652344 25.77308594 15.23804688 25.42117187 14.65234375 25.05859375 C8.16033378 20.90760908 1.48625201 16.43715911 -1.625 9.125 C-2.00790462 7.13389599 -2.35104615 5.13399487 -2.625 3.125 C-3.285 4.445 -3.945 5.765 -4.625 7.125 C-4.75 4.75 -4.75 4.75 -4.625 2.125 C-2.625 0.125 -2.625 0.125 0 0 Z " fill="#B4B4B4" transform="translate(272.625,175.875)"/>
<path d="M0 0 C2.58396679 -0.08112454 5.16537568 -0.14054748 7.75 -0.1875 C8.47960937 -0.21263672 9.20921875 -0.23777344 9.9609375 -0.26367188 C13.22314485 -0.30815652 15.58316921 -0.22148219 18.4921875 1.32421875 C20 3 20 3 20.375 6 C20 9 20 9 18 12 C19.32 12.99 20.64 13.98 22 15 C21.51635112 21.40834768 21.51635112 21.40834768 19.5 23.71875 C15.78104187 25.62471604 12.36105594 25.3204446 8.25 25.1875 C7.06083984 25.16719727 7.06083984 25.16719727 5.84765625 25.14648438 C3.89814436 25.11125223 1.94898374 25.05744821 0 25 C0.495 23.515 0.495 23.515 1 22 C1.66 22 2.32 22 3 22 C3 15.4 3 8.8 3 2 C2.01 2 1.02 2 0 2 C0 1.34 0 0.68 0 0 Z " fill="#151515" transform="translate(253,240)"/>
<path d="M0 0 C0.33 0 0.66 0 1 0 C1.71413279 8.02124152 2.14525497 15.94641862 2 24 C0 21 0 21 -1 19 C-1.13535156 19.556875 -1.27070313 20.11375 -1.41015625 20.6875 C-3.2395989 27.17270986 -6.27977959 31.25391536 -11 36 C-9.68 36 -8.36 36 -7 36 C-6.34 35.34 -5.68 34.68 -5 34 C-5.24609375 35.859375 -5.24609375 35.859375 -6 38 C-7.84765625 39.265625 -7.84765625 39.265625 -10.0625 40.25 C-10.79597656 40.58515625 -11.52945312 40.9203125 -12.28515625 41.265625 C-12.85105469 41.50796875 -13.41695313 41.7503125 -14 42 C-12.87851562 41.94779297 -12.87851562 41.94779297 -11.734375 41.89453125 C-10.74953125 41.86746094 -9.7646875 41.84039062 -8.75 41.8125 C-7.77546875 41.77769531 -6.8009375 41.74289062 -5.796875 41.70703125 C-2.55995939 42.04609364 -1.2528083 42.67367348 1 45 C1.46048338 48.17221886 1.70954605 49.98589531 1 53 C-1.5 56 -1.5 56 -4 58 C-4.66 57.34 -5.32 56.68 -6 56 C-5.01 55.505 -5.01 55.505 -4 55 C-4.79117904 53.00016466 -4.79117904 53.00016466 -6 51 C-13.25423094 48.58192302 -19.97264393 49.16889197 -26.74682617 52.5546875 C-28.56858118 53.53222613 -30.36537343 54.54724329 -32.1640625 55.56640625 C-33.09992188 56.03949219 -34.03578125 56.51257813 -35 57 C-35.66 56.67 -36.32 56.34 -37 56 C-35.9790625 55.06994141 -35.9790625 55.06994141 -34.9375 54.12109375 C-33.42390446 52.73832761 -31.91080922 51.35497565 -30.40600586 49.96264648 C-27.24955112 47.04314229 -24.06073778 44.17330364 -20.81640625 41.3515625 C-12.88736971 34.35962694 -6.59033251 28.59681482 -4 18 C-3.81550293 17.25121582 -3.63100586 16.50243164 -3.44091797 15.73095703 C-2.17385774 10.5093514 -1.04807183 5.2696349 0 0 Z " fill="#0D0D0D" transform="translate(311,257)"/>
<path d="M0 0 C2.3959247 3.93691592 2.93925693 8.23491497 3.8125 12.6875 C6.62353965 26.07766371 12.56418449 32.91714313 22.5 42 C26.42252318 45.58578685 30.26675727 49.21463521 34 53 C34.763125 53.763125 35.52625 54.52625 36.3125 55.3125 C36.869375 55.869375 37.42625 56.42625 38 57 C34.18834147 55.57062805 30.64635353 53.8171042 27.0625 51.90234375 C22.97034154 50.11202442 18.86416187 49.82388031 14.4375 49.75 C13.50808594 49.72421875 12.57867187 49.6984375 11.62109375 49.671875 C8.54788105 50.05659909 7.22693167 50.8851793 5 53 C4.20376178 55.09415804 4.20376178 55.09415804 4 57 C1.70125314 55.27593985 0.19593315 53.9363344 -0.40625 51.05859375 C-0.5 48.9375 -0.5 48.9375 0 45 C2.24858037 42.66736055 3.55936858 42.04615553 6.796875 41.70703125 C7.77140625 41.74183594 8.7459375 41.77664063 9.75 41.8125 C10.73484375 41.83957031 11.7196875 41.86664063 12.734375 41.89453125 C13.48203125 41.92933594 14.2296875 41.96414063 15 42 C12.36 40.68 9.72 39.36 7 38 C7 37.01 7 36.02 7 35 C8.32 35 9.64 35 11 35 C10.60167969 34.59910156 10.20335937 34.19820313 9.79296875 33.78515625 C5.54538267 29.22752739 3.55293177 25.00739397 2 19 C1.01 21.475 1.01 21.475 0 24 C-0.66 23.67 -1.32 23.34 -2 23 C-1.93941406 22.42894531 -1.87882813 21.85789062 -1.81640625 21.26953125 C-1.08466041 14.18848306 -0.52298617 7.09925906 0 0 Z " fill="#101010" transform="translate(190,257)"/>
<path d="M0 0 C8.54205985 1.05674967 16.48750821 5.34699267 22 12 C22 12.33 22 12.66 22 13 C18.7 13.66 15.4 14.32 12 15 C11.67 16.32 11.34 17.64 11 19 C12.32 19.33 13.64 19.66 15 20 C14.67 21.98 14.34 23.96 14 26 C10.75 26.3125 10.75 26.3125 7 26 C4.14528344 23.29553168 2.57894956 20.90790955 2 17 C1.401875 17.804375 0.80375 18.60875 0.1875 19.4375 C-2 22 -2 22 -5 23 C-5 22.34 -5 21.68 -5 21 C-4.34 21 -3.68 21 -3 21 C-3.12375 19.824375 -3.2475 18.64875 -3.375 17.4375 C-3.42540281 12.72483755 -1.48666587 10.54172757 1.6875 7.25 C2.120625 6.8375 2.55375 6.425 3 6 C2.505 5.566875 2.01 5.13375 1.5 4.6875 C0 3 0 3 0 0 Z " fill="#161616" transform="translate(223,321)"/>
<path d="M0 0 C2 2 2 2 2.24291992 4.12304688 C2.23675659 5.40791992 2.23675659 5.40791992 2.23046875 6.71875 C2.22853516 7.65074219 2.22660156 8.58273438 2.22460938 9.54296875 C2.20624023 11.00669922 2.20624023 11.00669922 2.1875 12.5 C2.18685547 13.47582031 2.18621094 14.45164063 2.18554688 15.45703125 C2.14034598 22.71930804 2.14034598 22.71930804 1 25 C-0.32 24.67 -1.64 24.34 -3 24 C-3 20 -3 16 -3 12 C-3.474375 12.474375 -3.94875 12.94875 -4.4375 13.4375 C-8.11644797 15.68076096 -11.7621112 15.73739578 -16 16 C-15.34 15.34 -14.68 14.68 -14 14 C-14.66 13.484375 -15.32 12.96875 -16 12.4375 C-18 10 -18 10 -18.375 6.375 C-18 3 -18 3 -16 1 C-13.375 0.875 -13.375 0.875 -11 1 C-11 2.98 -11 4.96 -11 7 C-8.75775342 7.58963678 -8.75775342 7.58963678 -6 7 C-3.723853 4.87310854 -1.8541278 2.4976567 0 0 Z " fill="#131313" transform="translate(179,219)"/>
<path d="M0 0 C2.37155889 2.37155889 2.69141213 3.92288082 3.625 7.125 C10.28062491 27.65883537 22.79867665 44.95452629 39.8125 58.1875 C42 60 42 60 43 62 C35.02647014 58.30267234 28.30828777 52.78265604 22.8125 45.9921875 C20.71756722 43.68956741 18.43696255 41.97728029 15.9375 40.125 C5.58110059 32.00017679 2.26285975 20.25389666 0.53515625 7.59375 C0.29685892 5.06061673 0.10568603 2.54174894 0 0 Z " fill="#ECECEC" transform="translate(191,255)"/>
<path d="M0 0 C3.63 0 7.26 0 11 0 C11 0.66 11 1.32 11 2 C10.34 2 9.68 2 9 2 C10.32 4.97 11.64 7.94 13 11 C14.65 8.03 16.3 5.06 18 2 C17.01 2 16.02 2 15 2 C15 1.34 15 0.68 15 0 C17.97 0 20.94 0 24 0 C24 2 24 2 22.66796875 3.36328125 C22.11753906 3.90339844 21.56710938 4.44351563 21 5 C16.99255124 10.72331415 15.36586203 15.02448238 16 22 C16.99 22.33 17.98 22.66 19 23 C19 23.66 19 24.32 19 25 C14.71 25 10.42 25 6 25 C6 24.34 6 23.68 6 23 C6.99 22.67 7.98 22.34 9 22 C10.19185737 14.50832512 6.17973346 8.99536429 2 3 C1.34 2.67 0.68 2.34 0 2 C0 1.34 0 0.68 0 0 Z " fill="#080808" transform="translate(227,240)"/>
<path d="M0 0 C0.33 0.99 0.66 1.98 1 3 C-0.65 3.66 -2.3 4.32 -4 5 C-3.34 5 -2.68 5 -2 5 C-1.93683594 5.556875 -1.87367188 6.11375 -1.80859375 6.6875 C-0.56218189 14.45461388 3.05786085 19.11040547 9.35546875 23.7265625 C10.88078641 24.73680552 12.42259461 25.72287678 13.984375 26.67578125 C15.92841575 27.95297081 17.42366112 29.29895076 19 31 C7.12439816 28.47774828 -2.86866032 21.83155567 -10 12 C-11.43735246 9.12529507 -11.38172649 7.18105412 -11 4 C-7.57094571 0.16752756 -5.04653478 -0.4694451 0 0 Z " fill="#0F0F0F" transform="translate(273,173)"/>
<path d="M0 0 C0.33 0 0.66 0 1 0 C1.02578125 1.11117187 1.0515625 2.22234375 1.078125 3.3671875 C1.37212202 17.65355741 1.37212202 17.65355741 8.5625 29.5 C9.366875 29.995 10.17125 30.49 11 31 C11.99 31.66 12.98 32.32 14 33 C14.99 31.68 15.98 30.36 17 29 C17.375 31.6875 17.375 31.6875 17 35 C14.04993256 38.30126594 12.3587516 39.9184749 7.875 40.1875 C3.24913458 38.27681646 1.81520299 34.89440409 -0.09765625 30.44921875 C-1.32548248 25.75583969 -1.25147628 21.32852549 -1.1875 16.5 C-1.18685547 15.57574219 -1.18621094 14.65148437 -1.18554688 13.69921875 C-1.15546387 9.02632599 -0.95722511 4.59468052 0 0 Z " fill="#090909" transform="translate(314,242)"/>
<path d="M0 0 C0.33 0 0.66 0 1 0 C3.12665037 10.63325185 4.11500084 25.13681113 -1 35 C-3.37903623 38.13031083 -4.6855197 39.67137993 -8.5 40.625 C-12.04046644 39.73988339 -13.64169625 37.69520428 -16 35 C-15.67 34.01 -15.34 33.02 -15 32 C-14.01 32 -13.02 32 -12 32 C-5.96066141 29.04457899 -4.08742978 25.08030829 -2 19 C-0.78356968 15.16741131 -0.66743631 11.2380756 -0.4375 7.25 C-0.39431641 6.55261719 -0.35113281 5.85523438 -0.30664062 5.13671875 C-0.20110404 3.42468078 -0.1001009 1.71236439 0 0 Z " fill="#0D0D0D" transform="translate(187,242)"/>
<path d="M0 0 C0.33 0 0.66 0 1 0 C1.71413279 8.02124152 2.14525497 15.94641862 2 24 C0 21 0 21 -1 19 C-1.13535156 19.556875 -1.27070313 20.11375 -1.41015625 20.6875 C-3.2395989 27.17270986 -6.27977959 31.25391536 -11 36 C-9.68 36 -8.36 36 -7 36 C-6.34 35.34 -5.68 34.68 -5 34 C-5.25390625 35.859375 -5.25390625 35.859375 -6 38 C-7.77734375 39.265625 -7.77734375 39.265625 -9.9375 40.25 C-10.64777344 40.58515625 -11.35804688 40.9203125 -12.08984375 41.265625 C-14 42 -14 42 -16 42 C-16 42.66 -16 43.32 -16 44 C-17.78614318 45.03046722 -19.57910018 46.04913236 -21.375 47.0625 C-22.37273437 47.63097656 -23.37046875 48.19945312 -24.3984375 48.78515625 C-25.25695312 49.18605469 -26.11546875 49.58695312 -27 50 C-27.66 49.67 -28.32 49.34 -29 49 C-24.68736696 44.59752044 -20.37853634 40.25195756 -15.6875 36.25 C-4.6400118 26.64634194 -2.81331426 13.73735367 0 0 Z " fill="#171717" transform="translate(311,257)"/>
<path d="M0 0 C2.3959247 3.93691592 2.93925693 8.23491497 3.8125 12.6875 C6.65926168 26.24782274 12.77288486 33.10112513 22.8125 42.3125 C23.40998047 42.86228516 24.00746094 43.41207031 24.62304688 43.97851562 C26.08114922 45.31996978 27.5404504 46.66012065 29 48 C28.01 48.495 28.01 48.495 27 49 C24.6171875 48.00390625 24.6171875 48.00390625 21.875 46.5625 C20.96492188 46.08941406 20.05484375 45.61632812 19.1171875 45.12890625 C18.41851562 44.75636719 17.71984375 44.38382812 17 44 C17 43.34 17 42.68 17 42 C16.37351563 41.82984375 15.74703125 41.6596875 15.1015625 41.484375 C14.28429687 41.24203125 13.46703125 40.9996875 12.625 40.75 C11.81289062 40.51796875 11.00078125 40.2859375 10.1640625 40.046875 C7.54214546 38.7785108 7.00617682 37.67576692 6 35 C7.98 35.33 9.96 35.66 12 36 C11.52949219 35.52691406 11.05898437 35.05382812 10.57421875 34.56640625 C6.00094957 29.70908308 3.57528939 25.48119062 2 19 C1.01 21.475 1.01 21.475 0 24 C-0.66 23.67 -1.32 23.34 -2 23 C-1.93941406 22.42894531 -1.87882813 21.85789062 -1.81640625 21.26953125 C-1.08466041 14.18848306 -0.52298617 7.09925906 0 0 Z " fill="#1B1B1B" transform="translate(190,257)"/>
<path d="M0 0 C0 0.33 0 0.66 0 1 C-0.63679688 0.9278125 -1.27359375 0.855625 -1.9296875 0.78125 C-19.52075846 -0.89853396 -37.55478668 -0.95145603 -55 2 C-37.44856794 -9.7009547 -18.46825092 -7.85485103 0 0 Z " fill="#EEEEEE" transform="translate(277,199)"/>
<path d="M0 0 C0.33 0.66 0.66 1.32 1 2 C1.61875 2.309375 2.2375 2.61875 2.875 2.9375 C5.15416328 4.07708164 6.43729428 4.99080693 8 7 C8.6875 9.6875 8.6875 9.6875 9 12 C10.98 11.34 12.96 10.68 15 10 C15.33 11.98 15.66 13.96 16 16 C5.62642369 23.66742597 5.62642369 23.66742597 0 25 C0.99 23.515 0.99 23.515 2 22 C1.67 21.34 1.34 20.68 1 20 C1.13985549 18.59859093 1.33523374 17.20241258 1.5625 15.8125 C2.12904094 11.40764418 1.41197345 8.23592034 0 4 C0 2.68 0 1.36 0 0 Z " fill="#191919" transform="translate(190,182)"/>
<path d="M0 0 C0.98120464 3.05263664 0.98120464 4.94736336 0 8 C0.66 8.33 1.32 8.66 2 9 C0.02 9.99 0.02 9.99 -2 11 C-1.69147815 12.958964 -1.3780582 14.91715713 -1.0625 16.875 C-0.88847656 17.96554688 -0.71445312 19.05609375 -0.53515625 20.1796875 C-0.14448841 22.93821546 -0.14448841 22.93821546 1 25 C-5.07190133 23.56191811 -10.36476177 20.11308689 -15 16 C-15 15.01 -15 14.02 -15 13 C-11.535 12.505 -11.535 12.505 -8 12 C-7.938125 11.278125 -7.87625 10.55625 -7.8125 9.8125 C-6.7446249 6.11600926 -4.89180184 4.46861132 -2 2 C-1.34 2 -0.68 2 0 2 C0 1.34 0 0.68 0 0 Z " fill="#1A1A1A" transform="translate(311,182)"/>
<path d="M0 0 C2 1 2 1 2.875 2.93359375 C4.27127364 5.49827693 5.33006344 5.96115117 8 7.0625 C8.7940625 7.39121094 9.588125 7.71992188 10.40625 8.05859375 C13.89894898 9.32627516 17.43824955 10.34645436 21.03125 11.2890625 C23 12 23 12 24 14 C21.66666667 14.33333333 19.33333333 14.66666667 17 15 C15.7625 15.185625 14.525 15.37125 13.25 15.5625 C10.44545117 15.94003542 7.81961908 16 5 16 C4.67 17.32 4.34 18.64 4 20 C2.68 19.34 1.36 18.68 0 18 C0 12.06 0 6.12 0 0 Z " fill="#191919" transform="translate(321,224)"/>
<path d="M0 0 C-0.61277612 2.96175123 -1.25372522 4.38058783 -3 7 C-2.195625 7.78375 -1.39125 8.5675 -0.5625 9.375 C2.61397541 12.62895042 2.98398634 13.07120797 3.0625 17.625 C3.041875 18.73875 3.02125 19.8525 3 21 C-1.02550319 19.6581656 -1.88285636 17.5772427 -4 14 C-4 13.34 -4 12.68 -4 12 C-5.03125 11.855625 -6.0625 11.71125 -7.125 11.5625 C-9.47065898 11.22200112 -11.81011453 10.8217748 -14.125 10.3125 C-17.38236046 9.95843908 -19.10240314 10.55120157 -22 12 C-18.46145953 8.17043937 -15.03564235 5.63309367 -10.4375 3.1875 C-9.32246094 2.58292969 -8.20742188 1.97835938 -7.05859375 1.35546875 C-4 0 -4 0 0 0 Z " fill="#101010" transform="translate(279,321)"/>
<path d="M0 0 C0.33 0 0.66 0 1 0 C0.75430769 11.34651767 -2.02763869 20.38867461 -10.0625 28.625 C-12.8902088 31.31764105 -15.40151851 33.45423197 -19 35 C-19 30.85765576 -16.81077655 28.56773905 -14.5 25.3125 C-9.80488921 18.52254397 -6.04927844 11.50979295 -2.49609375 4.0703125 C-1 1 -1 1 0 0 Z " fill="#F0F0F0" transform="translate(308,264)"/>
<path d="M0 0 C4.44271164 0.54387178 7.71904871 1.63947076 11.625 3.8125 C12.54539063 4.31394531 13.46578125 4.81539063 14.4140625 5.33203125 C16.9827473 6.98887175 18.93131518 8.76135281 21 11 C20.113125 10.649375 19.22625 10.29875 18.3125 9.9375 C13.95225057 8.70346714 11.71561054 9.27763767 7.625 11 C4.26534512 13.55973705 2.09479569 16.61858882 -0.3515625 20.0390625 C-2 22 -2 22 -5 23 C-5 22.34 -5 21.68 -5 21 C-4.34 21 -3.68 21 -3 21 C-3.12375 19.824375 -3.2475 18.64875 -3.375 17.4375 C-3.42540281 12.72483755 -1.48666587 10.54172757 1.6875 7.25 C2.120625 6.8375 2.55375 6.425 3 6 C2.505 5.566875 2.01 5.13375 1.5 4.6875 C0 3 0 3 0 0 Z " fill="#161616" transform="translate(223,321)"/>
<path d="M0 0 C3.77607292 1.09506115 6.33003108 2.01809482 8.4375 5.5 C9.05178727 9.03572323 9.10094141 12.2511691 7.375 15.5 C4.41662322 17.02690415 1.70033401 16.68468872 -1.5625 16.5 C-1.8925 14.52 -2.2225 12.54 -2.5625 10.5 C-1.2425 10.17 0.0775 9.84 1.4375 9.5 C1.1075 8.18 0.7775 6.86 0.4375 5.5 C-2.8625 4.84 -6.1625 4.18 -9.5625 3.5 C-6.41452422 0.0473814 -4.50078119 -0.87638974 0 0 Z " fill="#080808" transform="translate(266.5625,330.5)"/>
<path d="M0 0 C5.17992221 1.94247083 9.80490765 4.88654272 14.4375 7.875 C13.7775 8.205 13.1175 8.535 12.4375 8.875 C10.43463211 8.12281839 8.45916508 7.29710988 6.5 6.4375 C-1.77059957 3.140251 -8.30947703 2.51572935 -16.5625 5.875 C-18.875 5.5 -18.875 5.5 -20.5625 4.875 C-20.5625 3.225 -20.5625 1.575 -20.5625 -0.125 C-19.5725 -0.125 -18.5825 -0.125 -17.5625 -0.125 C-12.50876338 -2.65186831 -5.25881733 -1.59642669 0 0 Z " fill="#ECECEC" transform="translate(214.5625,307.125)"/>
<path d="M0 0 C0.78375 0.04125 1.5675 0.0825 2.375 0.125 C2.5709375 0.95902344 2.766875 1.79304687 2.96875 2.65234375 C5.5471413 12.35465241 9.50991656 18.97862789 17.875 24.6875 C18.7 25.161875 19.525 25.63625 20.375 26.125 C19.715 26.455 19.055 26.785 18.375 27.125 C10.40572816 23.58474727 1.82888647 17.38143337 -1.625 9.125 C-2.00790462 7.13389599 -2.35104615 5.13399487 -2.625 3.125 C-3.285 4.445 -3.945 5.765 -4.625 7.125 C-4.75 4.75 -4.75 4.75 -4.625 2.125 C-2.625 0.125 -2.625 0.125 0 0 Z " fill="#EAEAEA" transform="translate(272.625,175.875)"/>
<path d="M0 0 C1.2065625 0.0309375 1.2065625 0.0309375 2.4375 0.0625 C2.1075 0.7225 1.7775 1.3825 1.4375 2.0625 C1.56125 3.609375 1.56125 3.609375 1.6875 5.1875 C1.35653141 10.31751315 -0.18426043 13.23181763 -3.5625 17.0625 C-6.72652274 19.69205944 -10.06412095 21.90462134 -13.5625 24.0625 C-14.26632813 24.51109375 -14.97015625 24.9596875 -15.6953125 25.421875 C-17.5625 26.5625 -17.5625 26.5625 -20.5625 28.0625 C-21.2225 27.7325 -21.8825 27.4025 -22.5625 27.0625 C-21.47582031 26.33546875 -21.47582031 26.33546875 -20.3671875 25.59375 C-12.42290293 20.0857127 -6.20225953 15.42813178 -4.25 5.625 C-4.13011719 4.78066406 -4.01023438 3.93632812 -3.88671875 3.06640625 C-3.39819746 0.04699154 -3.11437946 0.07596047 0 0 Z " fill="#E7E7E7" transform="translate(229.5625,175.9375)"/>
<path d="M0 0 C1.04027344 -0.01417969 2.08054687 -0.02835937 3.15234375 -0.04296875 C6.04448108 0.186073 7.55097934 0.85588837 10.0625 2.1875 C10.7225 1.8575 11.3825 1.5275 12.0625 1.1875 C12.0625 2.8375 12.0625 4.4875 12.0625 6.1875 C9.34990825 7.23080452 8.22292521 7.24479472 5.4375 6.25 C-3.3289403 3.49019472 -10.00121411 5.60201711 -18.25 9.19140625 C-19.136875 9.52011719 -20.02375 9.84882813 -20.9375 10.1875 C-21.5975 9.8575 -22.2575 9.5275 -22.9375 9.1875 C-20.66853368 7.87167937 -18.39746813 6.55974764 -16.125 5.25 C-15.48240234 4.87681641 -14.83980469 4.50363281 -14.17773438 4.11914062 C-9.18324251 1.24666085 -5.7417651 0.03548681 0 0 Z " fill="#F0F0F0" transform="translate(295.9375,305.8125)"/>
<path d="M0 0 C4.72262404 0.28621964 6.84842764 2.48117306 10.171875 5.515625 C12.83076969 7.67455659 15.84581243 8.71496062 19 10 C21.9375 12.1875 21.9375 12.1875 24 14 C21.625 14.625 21.625 14.625 19 15 C18.34 14.34 17.68 13.68 17 13 C7.65482998 8.76299495 -0.74393168 7.17145403 -11 7 C-11.33 6.01 -11.66 5.02 -12 4 C-10.083412 3.97287847 -8.1667127 3.95354903 -6.25 3.9375 C-4.64898437 3.92009766 -4.64898437 3.92009766 -3.015625 3.90234375 C-0.46631499 3.98489913 1.57933591 4.25382442 4 5 C3.67 4.01 3.34 3.02 3 2 C2.01 1.67 1.02 1.34 0 1 C0 0.67 0 0.34 0 0 Z " fill="#2A2A2A" transform="translate(257,186)"/>
<path d="M0 0 C4.84580105 0.59336339 9.32361566 1.61440464 14 3 C14.73089844 3.10441406 15.46179688 3.20882812 16.21484375 3.31640625 C20.10568353 4.27138095 23.40309206 6.08333056 26.9375 7.9375 C31.55626109 10.34822591 35.98332451 12.50049293 41 14 C40.7178711 16.27203802 40.42397144 18.54261684 40.125 20.8125 C39.88136719 22.70935547 39.88136719 22.70935547 39.6328125 24.64453125 C39 28 39 28 37 31 C37.14109986 28.89551062 37.28804175 26.7914123 37.4375 24.6875 C37.51871094 23.51574219 37.59992188 22.34398437 37.68359375 21.13671875 C38 18 38 18 39 15 C37.81277344 14.87044922 37.81277344 14.87044922 36.6015625 14.73828125 C31.92475013 13.77958544 27.76920244 12.02196885 23.375 10.1875 C16.65309913 7.42605054 9.98488634 4.87379815 3.01953125 2.7890625 C1 2 1 2 0 0 Z " fill="#BDBDBD" transform="translate(278,200)"/>
<path d="M0 0 C0.33 0 0.66 0 1 0 C1.24234375 0.86882812 1.4846875 1.73765625 1.734375 2.6328125 C4.32501938 11.54064357 6.28201683 17.42590104 14 23 C13.125 26.875 13.125 26.875 12 28 C10.33382885 28.04063832 8.66611905 28.042721 7 28 C7.66 27.34 8.32 26.68 9 26 C7.6078125 25.01 7.6078125 25.01 6.1875 24 C2.58920341 20.93761993 0.85652448 17.62669636 0 13 C-0.22432544 8.65307155 -0.17894858 4.34778781 0 0 Z " fill="#EBEBEB" transform="translate(316,248)"/>
<path d="M0 0 C0.33 0 0.66 0 1 0 C1.44829074 8.05678083 1.64989647 15.10686274 -3 22 C-5.75 24.5625 -5.75 24.5625 -8 26 C-7.34 26.66 -6.68 27.32 -6 28 C-8.375 28.125 -8.375 28.125 -11 28 C-11.66 27.34 -12.32 26.68 -13 26 C-13 24.1875 -13 24.1875 -12 22 C-11.071875 21.278125 -10.14375 20.55625 -9.1875 19.8125 C-3.14412937 15.08794646 -1.56550296 7.17522192 0 0 Z " fill="#EEEEEE" transform="translate(185,248)"/>
<path d="M0 0 C3 2 3 2 3.984375 5.83203125 C4.25957639 7.48899059 4.5133607 9.14959534 4.75 10.8125 C4.87995361 11.68874023 5.00990723 12.56498047 5.14379883 13.46777344 C6.43731801 23.36341445 5.8259133 33.08904039 5 43 C4.34 43 3.68 43 3 43 C3 35.74 3 28.48 3 21 C2.67 23.97 2.34 26.94 2 30 C1.67 30 1.34 30 1 30 C0.12313415 23.26815587 -0.12387197 16.7214632 -0.0625 9.9375 C-0.05573242 8.49600586 -0.05573242 8.49600586 -0.04882812 7.02539062 C-0.03717706 4.68352578 -0.02082025 2.34179819 0 0 Z " fill="#9B9B9B" transform="translate(185,227)"/>
<path d="M0 0 C1 3 1 3 0 6 C-0.06740865 7.56118428 -0.08514456 9.1250252 -0.0625 10.6875 C-0.05347656 11.49574219 -0.04445312 12.30398437 -0.03515625 13.13671875 C-0.02355469 13.75160156 -0.01195312 14.36648437 0 15 C-0.99 15.33 -1.98 15.66 -3 16 C-3 13.69 -3 11.38 -3 9 C-3.515625 9.350625 -4.03125 9.70125 -4.5625 10.0625 C-7.9864021 11.37938542 -10.42959585 10.67714561 -14 10 C-15.134375 9.814375 -16.26875 9.62875 -17.4375 9.4375 C-18.283125 9.293125 -19.12875 9.14875 -20 9 C-18.17904038 6.68298587 -17.18821266 6.04048449 -14.2578125 5.41015625 C-13.22398437 5.29542969 -12.19015625 5.18070313 -11.125 5.0625 C-6.3468126 4.38568653 -3.40623162 3.64953388 0 0 Z " fill="#121212" transform="translate(177,229)"/>
<path d="M0 0 C0.99 0.495 0.99 0.495 2 1 C3.216875 0.896875 4.43375 0.79375 5.6875 0.6875 C10.1755967 0.63068865 12.1730369 2.22310459 15.32421875 5.265625 C15.87722656 5.83796875 16.43023437 6.4103125 17 7 C17.87591797 7.85851562 17.87591797 7.85851562 18.76953125 8.734375 C20.19721295 10.13865208 21.60113435 11.56701568 23 13 C22.01 13.495 22.01 13.495 21 14 C18.6171875 13.00390625 18.6171875 13.00390625 15.875 11.5625 C14.96492187 11.08941406 14.05484375 10.61632812 13.1171875 10.12890625 C12.41851562 9.75636719 11.71984375 9.38382812 11 9 C11 8.34 11 7.68 11 7 C10.37351563 6.82984375 9.74703125 6.6596875 9.1015625 6.484375 C8.28429687 6.24203125 7.46703125 5.9996875 6.625 5.75 C5.81289062 5.51796875 5.00078125 5.2859375 4.1640625 5.046875 C1.54214546 3.7785108 1.00617682 2.67576692 0 0 Z " fill="#222222" transform="translate(196,292)"/>
<path d="M0 0 C2 2 2 2 2.24291992 4.12304688 C2.23881104 4.97962891 2.23470215 5.83621094 2.23046875 6.71875 C2.22853516 7.65074219 2.22660156 8.58273438 2.22460938 9.54296875 C2.21236328 10.51878906 2.20011719 11.49460938 2.1875 12.5 C2.18685547 13.47582031 2.18621094 14.45164063 2.18554688 15.45703125 C2.14034598 22.71930804 2.14034598 22.71930804 1 25 C-0.32 24.67 -1.64 24.34 -3 24 C-3.25012607 16.62128089 -3.25012607 16.62128089 -2.03125 13.59375 C-0.88568929 10.71249125 -0.59797847 8.27203552 -0.375 5.1875 C-0.26285156 3.72376953 -0.26285156 3.72376953 -0.1484375 2.23046875 C-0.09945312 1.49441406 -0.05046875 0.75835937 0 0 Z " fill="#D3D3D3" transform="translate(179,219)"/>
<path d="M0 0 C3.125 0.25 3.125 0.25 5 1.75 C5.37125 2.245 5.7425 2.74 6.125 3.25 C4.25 8.125 4.25 8.125 3.125 9.25 C0.6875 9.4375 0.6875 9.4375 -1.875 9.25 C-3.875 7.25 -3.875 7.25 -4.0625 4.1875 C-3.81639535 0.33186047 -3.81639535 0.33186047 0 0 Z " fill="#222222" transform="translate(171.875,203.75)"/>
<path d="M0 0 C-0.125 1.8125 -0.125 1.8125 -1 4 C-5.22177827 6.70626812 -9.87370994 7.93524493 -14.65234375 9.3046875 C-17.17344694 10.05137031 -19.58758632 10.95462074 -22 12 C-18.46145953 8.17043937 -15.03564235 5.63309367 -10.4375 3.1875 C-9.32246094 2.58292969 -8.20742188 1.97835938 -7.05859375 1.35546875 C-4 0 -4 0 0 0 Z " fill="#F3F3F3" transform="translate(279,321)"/>
<path d="M0 0 C0.33 0.33 0.66 0.66 1 1 C0.71269945 3.33944736 0.38063221 5.6739143 0 8 C-1.98 8.33 -3.96 8.66 -6 9 C-7.5625 7.25 -7.5625 7.25 -9 5 C-8.8125 2.8125 -8.8125 2.8125 -8 1 C-5.26752652 -0.36623674 -3.01801098 -0.128426 0 0 Z " fill="#1E1E1E" transform="translate(333,204)"/>
<path d="M0 0 C3 0.125 3 0.125 4 1.125 C4.125 4.625 4.125 4.625 4 8.125 C3 9.125 3 9.125 0.0625 9.375 C-0.948125 9.2925 -1.95875 9.21 -3 9.125 C-5 6.125 -5 6.125 -4.6875 3.5 C-3.68897505 0.05055016 -3.71397355 0.1547489 0 0 Z " fill="#212121" transform="translate(251,339.875)"/>
<path d="M0 0 C2 1 2 1 2.8515625 3.00390625 C4.52969169 8.55529321 5.32200738 13.20386714 5 19 C3.68 19 2.36 19 1 19 C0 18 0 18 -0.11352539 16.23413086 C-0.10828857 15.48526611 -0.10305176 14.73640137 -0.09765625 13.96484375 C-0.09443359 13.15595703 -0.09121094 12.34707031 -0.08789062 11.51367188 C-0.07951172 10.66353516 -0.07113281 9.81339844 -0.0625 8.9375 C-0.05798828 8.08349609 -0.05347656 7.22949219 -0.04882812 6.34960938 C-0.03700373 4.23304337 -0.01906769 2.11651315 0 0 Z " fill="#E2E2E2" transform="translate(321,224)"/>
<path d="M0 0 C4.44271164 0.54387178 7.71904871 1.63947076 11.625 3.8125 C12.54539063 4.31394531 13.46578125 4.81539063 14.4140625 5.33203125 C16.9827473 6.98887175 18.93131518 8.76135281 21 11 C15.98642135 9.52418666 10.97961392 8.02449891 6 6.4375 C5.278125 6.20933594 4.55625 5.98117187 3.8125 5.74609375 C2 5 2 5 0 3 C0 2.01 0 1.02 0 0 Z " fill="#E8E8E8" transform="translate(223,321)"/>
<path d="M0 0 C0.99 0.33 1.98 0.66 3 1 C2.34 2.32 1.68 3.64 1 5 C1.66 4.67 2.32 4.34 3 4 C5.6723621 3.86584528 8.32250488 3.95681459 11 4 C11 4.33 11 4.66 11 5 C3.03100406 7.16286319 -4.91693875 9.29830289 -13 11 C-10.27809188 8.20368892 -7.47941216 5.63235326 -4.4375 3.1875 C-3.67308594 2.56230469 -2.90867188 1.93710938 -2.12109375 1.29296875 C-1.42113281 0.86628906 -0.72117188 0.43960938 0 0 Z " fill="#090909" transform="translate(240,187)"/>
<path d="M0 0 C0.99 0.33 1.98 0.66 3 1 C2.83203125 2.76953125 2.83203125 2.76953125 2 5 C-0.36328125 6.88671875 -0.36328125 6.88671875 -3.3125 8.6875 C-4.27800781 9.28949219 -5.24351562 9.89148438 -6.23828125 10.51171875 C-8.57629533 11.77166693 -10.41007159 12.53861133 -13 13 C-4.85443038 2.91500904 -4.85443038 2.91500904 0 0 Z " fill="#F2F2F2" transform="translate(203,194)"/>
<path d="M0 0 C2.13671875 -0.34375 2.13671875 -0.34375 5 0 C7.1491769 1.78663019 8.93903847 3.46395503 10.8125 5.5 C11.31458984 6.02464844 11.81667969 6.54929688 12.33398438 7.08984375 C13.56762133 8.38222532 14.78541625 9.68969599 16 11 C15.01 11.495 15.01 11.495 14 12 C11.25 10.63671875 11.25 10.63671875 8 8.6875 C6.9275 8.05199219 5.855 7.41648438 4.75 6.76171875 C2 5 2 5 0 3 C0 2.01 0 1.02 0 0 Z " fill="#ECECEC" transform="translate(296,195)"/>
<path d="M0 0 C0.66 0 1.32 0 2 0 C0.49049406 3.57087427 -1.60606226 5.81385442 -4.375 8.5 C-5.14585937 9.2528125 -5.91671875 10.005625 -6.7109375 10.78125 C-7.46632813 11.5134375 -8.22171875 12.245625 -9 13 C-11.01679027 15.00586902 -13.01984259 17.02046267 -15 19.0625 C-16.89948472 20.90262582 -18.85045134 22.4646081 -21 24 C-21.66 23.67 -22.32 23.34 -23 23 C-18.94201486 17.87412403 -14.64251798 14.05102065 -9.47265625 10.06640625 C-6.38033204 7.48214162 -3.8866512 4.60831399 -1.375 1.46875 C-0.92125 0.9840625 -0.4675 0.499375 0 0 Z " fill="#D4D4D4" transform="translate(287,298)"/>
<path d="M0 0 C0.33 0 0.66 0 1 0 C1.71413279 8.02124152 2.14525497 15.94641862 2 24 C1.34 23.01 0.68 22.02 0 21 C-0.556875 20.443125 -1.11375 19.88625 -1.6875 19.3125 C-4.69798859 14.00830581 -1.35477085 5.68214569 0 0 Z " fill="#0A0A0A" transform="translate(311,257)"/>
<path d="M0 0 C1.74965358 -0.05429959 3.49979787 -0.09292823 5.25 -0.125 C6.22453125 -0.14820313 7.1990625 -0.17140625 8.203125 -0.1953125 C11.0196498 0.00137219 12.60949036 0.55431084 15 2 C12.36 2.66 9.72 3.32 7 4 C7.99 4.33 8.98 4.66 10 5 C9.67 6.65 9.34 8.3 9 10 C7.68 9.67 6.36 9.34 5 9 C4.61866701 7.0085944 4.28674418 5.00720923 4 3 C4.33 2.67 4.66 2.34 5 2 C3.35 1.67 1.7 1.34 0 1 C0 0.67 0 0.34 0 0 Z " fill="#1D1D1D" transform="translate(205,317)"/>
<path d="M0 0 C-1.98 0.99 -1.98 0.99 -4 2 C-3.79375 2.763125 -3.5875 3.52625 -3.375 4.3125 C-3 7 -3 7 -5 10 C-6.32 9.67 -7.64 9.34 -9 9 C-9 7.68 -9 6.36 -9 5 C-8.01 4.67 -7.02 4.34 -6 4 C-8.64 3.34 -11.28 2.68 -14 2 C-14 1.67 -14 1.34 -14 1 C-9.32798795 -0.20568053 -4.78503708 -0.09382426 0 0 Z " fill="#1D1D1D" transform="translate(296,317)"/>
<path d="M0 0 C1.99954746 -0.04254356 4.00041636 -0.04080783 6 0 C7 1 7 1 7.125 4 C7 7 7 7 6 8 C4.00041636 8.04080783 1.99954746 8.04254356 0 8 C0 5.36 0 2.72 0 0 Z " fill="#F9F9F9" transform="translate(262,254)"/>
<path d="M0 0 C0.33 0 0.66 0 1 0 C1.19148936 21.72340426 1.19148936 21.72340426 0 31 C-0.33 31 -0.66 31 -1 31 C-1.19656362 26.72953289 -1.38070249 22.45861919 -1.5625 18.1875 C-1.61857422 16.97255859 -1.67464844 15.75761719 -1.73242188 14.50585938 C-1.78076172 13.34248047 -1.82910156 12.17910156 -1.87890625 10.98046875 C-1.9260376 9.90692139 -1.97316895 8.83337402 -2.02172852 7.72729492 C-1.9977855 4.72204232 -1.33782565 2.6756513 0 0 Z " fill="#858585" transform="translate(316,228)"/>
<path d="M0 0 C0.66 0 1.32 0 2 0 C1.8125 2.8125 1.8125 2.8125 1 6 C-1.3125 8 -1.3125 8 -4 9 C-6.25 8.4375 -6.25 8.4375 -8 7 C-8.875 5 -8.875 5 -9 3 C-8.34 2.34 -7.68 1.68 -7 1 C-4.9375 1.1875 -4.9375 1.1875 -3 2 C-2.67 2.99 -2.34 3.98 -2 5 C-1.34 3.35 -0.68 1.7 0 0 Z " fill="#2A2A2A" transform="translate(177,248)"/>
<path d="M0 0 C-1.6232687 0.6708712 -3.24867578 1.33657029 -4.875 2 C-5.77992188 2.37125 -6.68484375 2.7425 -7.6171875 3.125 C-10 4 -10 4 -12 4 C-11.67 4.969375 -11.34 5.93875 -11 6.9375 C-9.73126248 11.29766837 -9.81614472 15.49554566 -10 20 C-10.309375 19.360625 -10.61875 18.72125 -10.9375 18.0625 C-11.8345163 16.06389179 -11.8345163 16.06389179 -13 15 C-13.23427778 12.98405418 -13.41336124 10.961526 -13.5625 8.9375 C-13.64628906 7.83277344 -13.73007813 6.72804687 -13.81640625 5.58984375 C-13.90728516 4.30787109 -13.90728516 4.30787109 -14 3 C-12.42274653 2.29866401 -10.83788667 1.614417 -9.25 0.9375 C-7.92742187 0.36322266 -7.92742187 0.36322266 -6.578125 -0.22265625 C-3.84743691 -1.04600008 -2.63098653 -0.9773992 0 0 Z " fill="#D9D9D9" transform="translate(197,211)"/>
<path d="M0 0 C2.625 0.375 2.625 0.375 5 1 C5.33 2.32 5.66 3.64 6 5 C4.68 5.33 3.36 5.66 2 6 C2 5.01 2 4.02 2 3 C1.34 3 0.68 3 0 3 C1.26946514 7.82442184 1.26946514 7.82442184 5 11 C4.01 11.33 3.02 11.66 2 12 C-0.87398748 9.66488517 -1.92491816 8.62568199 -2.375 4.875 C-2 2 -2 2 0 0 Z " fill="#373737" transform="translate(289,182)"/>
<path d="M0 0 C0.66 0 1.32 0 2 0 C2.66 1.65 3.32 3.3 4 5 C4.66 3.68 5.32 2.36 6 1 C7.32 1.33 8.64 1.66 10 2 C10.042721 3.66611905 10.04063832 5.33382885 10 7 C9 8 9 8 6.6875 8.3125 C4 8 4 8 1.6875 6.25 C0 4 0 4 0 0 Z " fill="#292929" transform="translate(323,248)"/>
<path d="M0 0 C1.66611905 -0.042721 3.33382885 -0.04063832 5 0 C6 1 6 1 6.1875 3.4375 C6 6 6 6 4 8 C2.68 8 1.36 8 0 8 C0 5.36 0 2.72 0 0 Z " fill="#EFEFEF" transform="translate(262,243)"/>
<path d="M0 0 C0.33 2.31 0.66 4.62 1 7 C0.01 7.66 -0.98 8.32 -2 9 C-1.67 6.69 -1.34 4.38 -1 2 C-1.66 2 -2.32 2 -3 2 C-3 2.99 -3 3.98 -3 5 C-4.32 4.67 -5.64 4.34 -7 4 C-7 2.68 -7 1.36 -7 0 C-4.3333581 -1.33332095 -2.83319697 -0.67102033 0 0 Z " fill="#464646" transform="translate(214,183)"/>
<path d="M0 0 C0.66 0.33 1.32 0.66 2 1 C1.67 1.66 1.34 2.32 1 3 C1.99 3.33 2.98 3.66 4 4 C2.21385682 5.03046722 0.42089982 6.04913236 -1.375 7.0625 C-2.87160156 7.91521484 -2.87160156 7.91521484 -4.3984375 8.78515625 C-5.25695312 9.18605469 -6.11546875 9.58695312 -7 10 C-7.66 9.67 -8.32 9.34 -9 9 C-6.03 6.03 -3.06 3.06 0 0 Z " fill="#3E3E3E" transform="translate(291,297)"/>
<path d="M0 0 C0.556875 0.28875 1.11375 0.5775 1.6875 0.875 C3.9806496 2.06714443 3.9806496 2.06714443 6.5 2.75 C9.88621335 4.44310667 11.11486781 6.7882933 13 10 C10.19550072 8.63241271 7.48556336 7.17235617 4.8125 5.5625 C4.11769531 5.15128906 3.42289063 4.74007813 2.70703125 4.31640625 C1 3 1 3 0 0 Z " fill="#919191" transform="translate(228,314)"/>
<path d="M0 0 C4.32046898 1.41680244 7.00461199 3.53763785 10.3125 6.625 C11.19550781 7.44226563 12.07851562 8.25953125 12.98828125 9.1015625 C13.65214844 9.72804688 14.31601563 10.35453125 15 11 C10.95384619 11 8.88911087 8.98772118 5.8125 6.625 C5.25369141 6.2125 4.69488281 5.8 4.11914062 5.375 C2.70386621 4.30360789 1.34655596 3.15657675 0 2 C0 1.34 0 0.68 0 0 Z " fill="#C8C8C8" transform="translate(219,305)"/>
<path d="M0 0 C2 1 2 1 3 3 C0.87875034 3.86343824 -1.24713072 4.71550648 -3.375 5.5625 C-5.15003906 6.27599609 -5.15003906 6.27599609 -6.9609375 7.00390625 C-10 8 -10 8 -12 7 C-10.04754815 5.80285445 -8.08785003 4.61751926 -6.125 3.4375 C-5.03445313 2.77621094 -3.94390625 2.11492187 -2.8203125 1.43359375 C-1.88960938 0.96050781 -0.95890625 0.48742187 0 0 Z " fill="#DADADA" transform="translate(285,308)"/>
<path d="M0 0 C3.66161578 1.22053859 4.16270474 2.36782304 6.1875 5.5625 C6.71730469 6.38878906 7.24710938 7.21507812 7.79296875 8.06640625 C8.19128906 8.70449219 8.58960938 9.34257812 9 10 C8.67 10.66 8.34 11.32 8 12 C6.65772954 10.57084149 5.32642904 9.13137328 4 7.6875 C3.2575 6.88699219 2.515 6.08648437 1.75 5.26171875 C0 3 0 3 0 0 Z " fill="#141414" transform="translate(195,282)"/>
<path d="M0 0 C0 0.66 0 1.32 0 2 C-0.66 2 -1.32 2 -2 2 C-2 2.66 -2 3.32 -2 4 C-4.64 4.99 -7.28 5.98 -10 7 C-10.66 6.34 -11.32 5.68 -12 5 C-10.37750059 4.16180842 -8.75191503 3.3295884 -7.125 2.5 C-6.22007812 2.0359375 -5.31515625 1.571875 -4.3828125 1.09375 C-2 0 -2 0 0 0 Z " fill="#8B8B8B" transform="translate(207,204)"/>
<path d="M0 0 C1.32 0.33 2.64 0.66 4 1 C1.4837822 3.60608273 -1.05134359 5.89381685 -4 8 C-4.66 7.67 -5.32 7.34 -6 7 C-4.02 4.69 -2.04 2.38 0 0 Z " fill="#7C7C7C" transform="translate(270,314)"/>
<path d="M0 0 C0.66 0.33 1.32 0.66 2 1 C1.24203125 1.72316406 1.24203125 1.72316406 0.46875 2.4609375 C-0.1809375 3.09257812 -0.830625 3.72421875 -1.5 4.375 C-2.1496875 5.00148437 -2.799375 5.62796875 -3.46875 6.2734375 C-5.22117431 7.86475907 -5.22117431 7.86475907 -5 10 C-6.98 10.66 -8.96 11.32 -11 12 C-7.49102731 7.81576108 -3.91939465 3.80411834 0 0 Z " fill="#E2E2E2" transform="translate(201,195)"/>
<path d="M0 0 C1.74965358 -0.05429959 3.49979787 -0.09292823 5.25 -0.125 C6.22453125 -0.14820313 7.1990625 -0.17140625 8.203125 -0.1953125 C11.0196498 0.00137219 12.60949036 0.55431084 15 2 C12.6739143 2.38063221 10.33944736 2.71269945 8 3 C7.67 2.67 7.34 2.34 7 2 C4.67182036 1.63239269 2.3381615 1.29758419 0 1 C0 0.67 0 0.34 0 0 Z " fill="#7A7A7A" transform="translate(205,317)"/>
<path d="M0 0 C0.66 0 1.32 0 2 0 C1.82374165 2.37948772 1.30280227 3.70225849 -0.40234375 5.37890625 C-1.90649092 6.62115486 -3.45129851 7.81376056 -5 9 C-5.66 8.67 -6.32 8.34 -7 8 C-5.88200014 6.66079162 -4.75538103 5.32877444 -3.625 4 C-2.68527344 2.88625 -2.68527344 2.88625 -1.7265625 1.75 C-1.15679687 1.1725 -0.58703125 0.595 0 0 Z " fill="#202020" transform="translate(303,285)"/>
<path d="M0 0 C0 0.33 0 0.66 0 1 C-5.16569441 2.79217969 -8.51053913 3.12029814 -14 2 C-14 1.67 -14 1.34 -14 1 C-9.32798795 -0.20568053 -4.78503708 -0.09382426 0 0 Z " fill="#848484" transform="translate(296,317)"/>
<path d="M0 0 C0.66 0.33 1.32 0.66 2 1 C2 1.66 2 2.32 2 3 C0.71349294 3.69710731 -0.57940665 4.38242876 -1.875 5.0625 C-2.95394531 5.63677734 -2.95394531 5.63677734 -4.0546875 6.22265625 C-4.69664062 6.47917969 -5.33859375 6.73570312 -6 7 C-6.66 6.67 -7.32 6.34 -8 6 C-5.38485683 3.87961365 -2.80362384 1.86908256 0 0 Z " fill="#B9B9B9" transform="translate(265,326)"/>
<path d="M0 0 C0.33 0 0.66 0 1 0 C0.67 3.63 0.34 7.26 0 11 C-0.99 10.67 -1.98 10.34 -3 10 C-2.01 6.7 -1.02 3.4 0 0 Z " fill="#C5C5C5" transform="translate(310,255)"/>
<path d="M0 0 C0.66 0.33 1.32 0.66 2 1 C2 1.66 2 2.32 2 3 C-3.2734375 6.22265625 -3.2734375 6.22265625 -5 7 C-5.66 6.67 -6.32 6.34 -7 6 C-4.69 4.02 -2.38 2.04 0 0 Z " fill="#181818" transform="translate(281,307)"/>
<path d="M0 0 C0.66 0 1.32 0 2 0 C1.75 2.875 1.75 2.875 1 6 C-1.0625 7.375 -1.0625 7.375 -3 8 C-3.66 7.34 -4.32 6.68 -5 6 C-4.01 5.67 -3.02 5.34 -2 5 C-0.78130071 2.49552484 -0.78130071 2.49552484 0 0 Z " fill="#4C4C4C" transform="translate(177,248)"/>
<path d="M0 0 C0.66 0.33 1.32 0.66 2 1 C-0.12780579 3.34058637 -2.11562221 4.70700306 -5 6 C-5.66 5.34 -6.32 4.68 -7 4 C-1.7265625 0.77734375 -1.7265625 0.77734375 0 0 Z " fill="#737373" transform="translate(226,196)"/>
<path d="M0 0 C0.99 0.33 1.98 0.66 3 1 C2.67 1.66 2.34 2.32 2 3 C3.32 3.33 4.64 3.66 6 4 C5.01 4.495 5.01 4.495 4 5 C1.64018187 4.06421005 -0.69631264 3.06652192 -3 2 C-2.01 1.34 -1.02 0.68 0 0 Z " fill="#434343" transform="translate(267,328)"/>
<path d="M0 0 C1.65 0 3.3 0 5 0 C4.01 0.495 4.01 0.495 3 1 C3.33 2.32 3.66 3.64 4 5 C2.68 4.67 1.36 4.34 0 4 C0 2.68 0 1.36 0 0 Z " fill="#0A0A0A" transform="translate(207,183)"/>
</svg>
